<?xml version="1.0" encoding="utf-8"?>
<!-- Generator: Adobe Illustrator 27.5.0, SVG Export Plug-In . SVG Version: 6.00 Build 0)  -->
<svg version="1.1" id="Pattern" xmlns="http://www.w3.org/2000/svg" xmlns:xlink="http://www.w3.org/1999/xlink" x="0px" y="0px"
	 viewBox="0 0 1080 1080" style="enable-background:new 0 0 1080 1080;" xml:space="preserve">
<g>
	<rect style="fill:#4B2B1C;" width="1080" height="1080"/>
	<g>
		<g>
			<path style="fill:#894B19;" d="M23.723,201.027c15.693,0.089,31.385,0.178,47.078,0.267c1.623,0.009,3.066-0.26,4.348-0.728
				c5.047-0.943,9.488-4.718,9.535-11.348c0.099-13.899,0.198-27.798,0.297-41.697c0.047-6.618,0.094-13.237,0.141-19.856
				c0.047-6.574,0.541-13.308-0.746-19.802c-2.785-14.051-15.639-19.34-28.654-19.276c-13.695,0.067-27.365,0.214-41.063,0.013
				C9.773,88.53,4.886,88.467,0,88.423v23.991c7.194,0.063,14.388,0.19,21.582,0.286c7.588,0.102,15.178,0.172,22.766,0.1
				c3.307-0.032,6.611-0.126,9.917-0.182c2.288-0.038,5.124-0.369,6.768,0.334c0.021,0.129,0.043,0.271,0.063,0.437
				c0.277,2.243,0.087,5.653,0.068,8.319c-0.052,7.28-0.104,14.561-0.155,21.841c-0.08,11.229-0.16,22.458-0.24,33.686
				c-11.041-0.063-22.082-0.125-33.123-0.188c-7.192-0.041-14.385-0.081-21.577-0.122c-1.78-0.01-3.903,0.119-6.069,0.181v23.777
				c0.717,0.008,1.433,0.015,2.146,0.02C9.338,200.951,16.531,200.986,23.723,201.027z M61.014,112.844
				C60.523,112.316,60.771,111.506,61.014,112.844L61.014,112.844z"/>
			<path style="fill:#894B19;" d="M23.526,81.825c15.674,0.083,31.349,0.166,47.023,0.249c15.446,0.082,15.464-23.918,0-24
				c-13.389-0.071-26.777-0.142-40.166-0.213c-6.531-0.035-13.062-0.069-19.593-0.104C7.705,57.741,3.649,57.427,0,57.348v24.354
				c0.332,0.001,0.665,0.001,0.994,0.003C8.505,81.745,16.016,81.785,23.526,81.825z"/>
			<path style="fill:#894B19;" d="M11.067,34.173c0.501,15.405,24.503,15.474,24,0C34.697,22.782,35.183,11.391,35.198,0h-24
				C11.183,11.391,10.697,22.782,11.067,34.173z"/>
			<path style="fill:#894B19;" d="M50.24,34.173c0.501,15.405,24.503,15.474,24,0C73.869,22.782,74.355,11.391,74.37,0h-24
				C50.355,11.391,49.869,22.782,50.24,34.173z"/>
			<path style="fill:#894B19;" d="M19.857,206.143c-15.443,0-15.468,24,0,24C35.3,230.143,35.326,206.143,19.857,206.143z"/>
			<path style="fill:#894B19;" d="M53.571,206.714c-15.443,0-15.468,24,0,24C69.014,230.714,69.04,206.714,53.571,206.714z"/>
			<path style="fill:#894B19;" d="M104.429,119.857c15.443,0,15.468-24,0-24C88.986,95.857,88.96,119.857,104.429,119.857z"/>
			<path style="fill:#894B19;" d="M106.143,130.143c-15.443,0-15.468,24,0,24C121.586,154.143,121.611,130.143,106.143,130.143z"/>
			<path style="fill:#894B19;" d="M105.571,168.428c-15.443,0-15.468,24,0,24C121.014,192.428,121.04,168.428,105.571,168.428z"/>
			<path style="fill:#894B19;" d="M92.429,231.286c13.714,0,27.428,0,41.143,0c15.443,0,15.469-24,0-24c-13.714,0-27.428,0-41.143,0
				C76.986,207.286,76.96,231.286,92.429,231.286z"/>
			<path style="fill:#894B19;" d="M64.096,246.822C42.73,246.354,21.365,245.886,0,245.418v24
				c12.497,0.274,24.994,0.548,37.491,0.821C24.994,283.966,12.497,297.692,0,311.419v35.611
				c24.194-26.574,48.387-53.148,72.581-79.722C79.568,259.633,74.751,247.055,64.096,246.822z"/>
			<path style="fill:#894B19;" d="M34.75,375.379c31.971-36.596,63.943-73.193,95.914-109.789c4.262-4.878,4.8-12.171,0-16.971
				c-4.351-4.351-12.689-4.901-16.971,0c-31.971,36.596-63.943,73.193-95.914,109.789c-4.262,4.878-4.8,12.171,0,16.971
				C22.131,379.729,30.469,380.28,34.75,375.379z"/>
			<path style="fill:#894B19;" d="M8.965,388.77c-1.797-3.071-5.3-5.296-8.965-5.866v26.234c1.462-1.458,3.015-2.793,4.66-3.95
				C9.954,401.466,12.431,394.696,8.965,388.77z"/>
			<path style="fill:#894B19;" d="M45.289,498.244c17.463-6.431,30.567-19.041,37.554-36.25c2.439-6.007-2.652-13.187-8.381-14.761
				c-6.864-1.886-12.313,2.352-14.761,8.381c-4.409,10.859-15.781,18.962-27.673,21.483c-10.711,2.271-22.878-1.482-31.378-9.246
				c-0.223-0.204-0.43-0.415-0.648-0.621v28.516C14.02,502.278,30.301,503.763,45.289,498.244z"/>
			<path style="fill:#894B19;" d="M35.089,415.9c-1.558-1.501-3.231-2.444-4.925-2.953c-2.986-2.62-7.166-3.925-11.015-2.575
				c-10.921,3.829-19.42,13.689-19.001,25.748c0.4,11.521,8.628,22.313,20.016,24.98c10.968,2.568,23.56-2.403,29.099-12.411
				c3.574-6.457,3.125-14.066-1.343-19.915C44.282,424.012,39.394,420.05,35.089,415.9z"/>
			<path style="fill:#894B19;" d="M857.747,2.879c-0.726,11.395-7.497,23.989-17.159,30.782c-5.295,3.722-7.771,10.492-4.305,16.418
				c3.064,5.238,11.09,8.051,16.418,4.305C870.802,41.659,881.471,21.129,881.596,0h-23.77
				C857.828,0.95,857.809,1.907,857.747,2.879z"/>
			<path style="fill:#894B19;" d="M810.158,22.948c1.557,1.501,3.231,2.443,4.925,2.953c2.986,2.62,7.166,3.925,11.016,2.575
				c10.921-3.829,19.42-13.689,19.001-25.749c-0.032-0.916-0.13-1.825-0.259-2.728h-51.21c0.162,3.56,1.388,7.052,3.697,10.074
				C800.965,14.837,805.853,18.799,810.158,22.948z"/>
			<path style="fill:#894B19;" d="M36.301,569.699c-8.231,0.177-16.461,0.354-24.692,0.531c9.74-12.952,20.398-25.167,31.965-36.616
				c7.319-7.244,1.938-20.638-8.485-20.485c-11.696,0.172-23.392,0.344-35.088,0.516v24c2.382-0.035,4.765-0.07,7.147-0.105
				c-2.428,2.827-4.807,5.697-7.147,8.598v48.341c12.1-0.26,24.2-0.52,36.301-0.781C51.722,593.367,51.776,569.366,36.301,569.699z"
				/>
			<path style="fill:#894B19;" d="M37.005,607.542c-12.335,0.215-24.67,0.43-37.005,0.645v24c12.335-0.215,24.67-0.43,37.005-0.645
				C52.431,631.273,52.48,607.272,37.005,607.542z"/>
			<path style="fill:#894B19;" d="M68.096,608c-6.033,1.658-10.407,8.577-8.381,14.761c1.755,5.357,1.92,9.97,0.045,15.985
				c-0.726,2.33-1.164,3.443-3.174,5.354c-0.127,0.1-0.287,0.222-0.449,0.335c-0.613,0.114-1.313,0.295-1.866,0.48
				c-0.037,0.006-0.059,0.01-0.093,0.016c-0.307,0.03-0.614,0.066-0.922,0.091c-3.551,0.242-7.1,0.347-10.659,0.382
				c-8.808,0.086-17.618-0.102-26.419-0.458c-6.482-0.263-12,5.703-12,12c0,6.719,5.498,11.736,12,12
				c10.347,0.419,20.731,0.67,31.085,0.378c6.87-0.194,14.131-0.493,20.328-3.787c16.508-8.774,20.615-32.824,15.266-49.155
				C80.84,610.224,74.559,606.224,68.096,608z"/>
			<path style="fill:#894B19;" d="M41.805,803.152c7.708-15.658,15.417-31.316,23.125-46.974
				c3.781-7.681,7.563-15.363,11.344-23.044c3.861-7.843,8.257-15.613,11.407-23.773c3.483-9.022,1.007-19.15-7.429-24.315
				c-7.13-4.365-16.545-3.156-24.489-3.049c-17.126,0.232-34.252,0.465-51.378,0.697c-1.462,0.02-2.924,0.04-4.386,0.06v24
				c20.893-0.284,41.787-0.567,62.68-0.851c0.076-0.001,0.16,0.005,0.238,0.005c-1.221,2.566-2.459,5.142-2.567,5.362
				c-4.363,8.863-8.726,17.726-13.09,26.589c-6.289,12.776-12.579,25.552-18.868,38.328c-7.939-8.549-15.878-17.098-23.818-25.648
				c4.417-0.353,8.835-0.706,13.252-1.06c6.461-0.517,12-5.146,12-12c0-6.093-5.504-12.52-12-12
				c-5.942,0.475-11.885,0.95-17.827,1.425v53.952c7.653,8.241,15.306,16.481,22.958,24.722
				C27.954,810.959,38.444,809.979,41.805,803.152z"/>
			<path style="fill:#894B19;" d="M958.045,379.591c2.614-7.804,6.197-15.85,7.727-23.943c1.835-9.707-1.805-19.46-11.554-23.066
				c-7.841-2.901-16.476-0.508-24.444,0.679c-17.266,2.572-34.533,5.145-51.799,7.717c-19.547,2.912-39.094,5.824-58.641,8.736
				c-6.416,0.956-9.95,9.054-8.381,14.761c1.888,6.87,8.326,9.34,14.761,8.381c38.196-5.69,76.356-11.915,114.624-17.106
				c-0.804,2.731-1.549,5.857-1.984,7.155c-3.137,9.368-6.274,18.735-9.411,28.103c-4.367,13.042-8.735,26.083-13.102,39.125
				c-9.016-7.411-18.031-14.823-27.047-22.235c4.87-1.059,9.741-2.118,14.611-3.177c6.335-1.378,10.031-8.758,8.381-14.761
				c-1.798-6.542-8.408-9.763-14.761-8.381c-12.698,2.761-25.396,5.522-38.093,8.283c-8.344,1.814-12.196,14.384-5.295,20.057
				c19.857,16.324,39.714,32.647,59.57,48.971c7.086,5.825,17.018,3.78,20.057-5.295c5.542-16.549,11.084-33.099,16.626-49.648
				C952.608,395.828,955.326,387.71,958.045,379.591z"/>
			<path style="fill:#894B19;" d="M36.545,848.847c4.755-4.755,4.396-12.182,0-16.971C24.364,818.607,12.182,805.337,0,792.068
				v35.456c6.525,7.107,13.05,14.215,19.575,21.323C23.959,853.623,32.1,853.292,36.545,848.847z"/>
			<path style="fill:#894B19;" d="M3.996,903.732c10.025,0.143,20.05,0.286,30.076,0.429c11.117,0.159,14.879-12.894,8.485-20.485
				C29.528,868.205,15.296,853.844,0,840.654v32.518c2.235,2.175,4.452,4.368,6.632,6.598c-2.211-0.032-4.421-0.063-6.632-0.095
				v24.099C1.379,903.737,2.721,903.713,3.996,903.732z"/>
			<path style="fill:#894B19;" d="M997.806,1011.327c-1.539-8.501-1.615-20.801-8.122-27.307
				c-7.635-7.635-19.588-3.816-28.932-2.649c-9.574,1.196-19.148,2.393-28.723,3.589c-1.498,0.187-2.945,0.563-4.291,1.107
				c-2.29,0.382-4.485,1.439-6.289,3.244c-4.417,4.417-4.821,12.602,0,16.97c19.669,17.821,41.083,33.705,63.915,47.24
				c9.646,5.718,19.416-3.68,17.628-13.552C1001.264,1030.422,999.535,1020.875,997.806,1011.327z M957.915,1005.726
				c3.18-0.397,6.36-0.795,9.54-1.192c1.572-0.197,3.144-0.393,4.717-0.589c0.255,1.405,0.509,2.81,0.763,4.216
				c0.605,3.341,1.21,6.682,1.815,10.023C969.017,1014.196,963.41,1010.036,957.915,1005.726z"/>
			<path style="fill:#894B19;" d="M25.029,1000.353c6.347-1.322,10.02-8.797,8.381-14.761c-1.81-6.586-8.396-9.707-14.761-8.381
				c-4.288,0.893-12.217,2.664-18.649,2.024v23.915C8.354,1003.659,16.891,1002.049,25.029,1000.353z"/>
			<path style="fill:#894B19;" d="M15.364,969.429c5.835,0.728,11.157-5.123,11.786-10.405c0.667-5.61-2.669-11.878-8.596-13.166
				c-3.976-0.865-7.951-1.623-11.907-2.071c-1.063-0.341-2.094-0.75-3.06-1.268c-1.12-0.601-2.379-1.912-2.929-2.535
				c-0.113-0.128-0.293-0.648-0.403-0.966c0.642-1.394,1.917-2.408,4.543-3.047c4.895-1.191,10.37-0.26,15.315,0.31
				c6.449,0.743,12-6.047,12-12c0-7.105-5.533-11.254-12-12C13.34,911.5,6.545,911.167,0,912.558v27.093
				c0.032-0.104,0.081-0.242,0.173-0.465c0.011-0.027,0.026-0.051,0.038-0.078c0.006,0.263-0.138,0.597-0.211,0.696v27.247
				c0.561,0.003,1.125,0.021,1.69,0.061C6.126,968.242,10.743,968.852,15.364,969.429z"/>
			<path style="fill:#894B19;" d="M11.067,1070.17c0.107,3.277,0.135,6.553,0.13,9.83h24c0.004-3.277-0.024-6.553-0.131-9.83
				C34.567,1054.765,10.564,1054.696,11.067,1070.17z"/>
			<path style="fill:#894B19;" d="M50.24,1070.17c0.106,3.277,0.135,6.553,0.131,9.83h24c0.004-3.277-0.024-6.553-0.131-9.83
				C73.739,1054.765,49.737,1054.696,50.24,1070.17z"/>
			<path style="fill:#894B19;" d="M74.24,949.891c-0.501-15.405-24.503-15.474-24,0c0.477,14.668-0.477,29.335,0,44.003
				c0.501,15.405,24.503,15.474,24,0C73.763,979.226,74.717,964.559,74.24,949.891z"/>
			<path style="fill:#894B19;" d="M113.412,949.891c-0.501-15.405-24.503-15.474-24,0c0.477,14.668-0.477,29.335,0,44.003
				c0.501,15.405,24.503,15.474,24,0C112.935,979.226,113.889,964.559,113.412,949.891z"/>
			<path style="fill:#894B19;" d="M593.797,889.757c-0.485-16.787,0.485-33.574,0-50.361c-0.445-15.411-24.447-15.475-24,0
				c0.485,16.787-0.485,33.574,0,50.361C570.242,905.167,594.244,905.232,593.797,889.757z"/>
			<path style="fill:#894B19;" d="M632.97,839.396c-0.445-15.411-24.447-15.475-24,0c0.485,16.787-0.485,33.574,0,50.361
				c0.445,15.411,24.447,15.475,24,0C632.485,872.97,633.454,856.183,632.97,839.396z"/>
			<path style="fill:#894B19;" d="M86.735,1045.288c0.706,0.131,3.503,1.42,2.972,1c1.166,0.92,1.689,2.344,2.055,3.695
				c1.016,3.748,0.718,8.477,0.626,13.527c-0.1,5.498-0.008,10.994-0.082,16.49h23.995c0.09-6.392-0.039-12.785,0.152-19.177
				c0.185-6.197,0.012-12.556-1.946-18.505c-2.292-6.962-6.604-13.205-13.049-16.91c-7.158-4.114-15.419-4.343-23.448-4.353
				c-26.004-0.03-52.007-0.035-78.011-0.043v24.004c22.009,0.011,44.019,0.022,66.028,0.033
				C72.686,1045.053,80.171,1044.071,86.735,1045.288z"/>
			<path style="fill:#894B19;" d="M116.214,4.348c0.051-1.449,0.069-2.899,0.089-4.348H92.308c-0.019,1.449-0.043,2.899-0.093,4.348
				C91.675,19.796,115.676,19.775,116.214,4.348z"/>
			<path style="fill:#894B19;" d="M1053.331,89.11c-7.402,2.053-10.18,8.463-10.292,15.508c-0.115,7.285,0.325,14.625,0.487,21.91
				c0.31,13.941,0.506,27.89,0.931,41.829c0.397,13.045,4.469,24.918,17.585,29.962c5.692,2.189,11.89,2.495,17.958,2.566v-23.777
				c-3.755,0.107-7.642,0.01-10.111-1.38c-0.448-0.252-0.618-0.548-0.965-1.865c-0.465-1.767-0.428-3.949-0.489-6.502
				c-0.176-7.303-0.325-14.607-0.487-21.91c-0.162-7.303-0.325-14.607-0.487-21.91c-0.081-3.652-0.163-7.303-0.244-10.955
				c-0.002-0.084-0.004-0.167-0.006-0.251c0.624,0.026,1.209,0.044,1.722,0.042c3.63-0.013,7.26,0.005,10.889,0.036
				c0.059,0,0.119,0.002,0.178,0.002V88.423c-1.709-0.015-3.417-0.037-5.126-0.044C1068.154,88.353,1059.839,87.305,1053.331,89.11z
				"/>
			<path style="fill:#894B19;" d="M1060.297,78.154c5.857,3.667,13.026,3.538,19.703,3.549V57.348
				c-2.426-0.053-4.675-0.003-6.332,0.311c0.007-0.042,0.012-0.078,0.02-0.121c0.189-1.099-0.054-4.601-0.083-6.592
				c-0.094-6.535-0.188-13.07-0.283-19.605c-0.151-10.447-0.301-20.894-0.452-31.341h-24c0.174,12.081,0.348,24.162,0.523,36.243
				C1049.594,50.123,1046.521,69.529,1060.297,78.154z M1073.64,57.831C1074.603,57.833,1072.966,61.999,1073.64,57.831
				L1073.64,57.831z"/>
			<path style="fill:#894B19;" d="M1065.001,229.571c15.443,0,15.469-24,0-24C1049.558,205.571,1049.532,229.571,1065.001,229.571z"
				/>
			<path style="fill:#894B19;" d="M1063.298,269.052c5.567,0.122,11.135,0.244,16.702,0.366v-24
				c-5.567-0.122-11.135-0.244-16.702-0.366C1047.848,244.714,1047.852,268.714,1063.298,269.052z"/>
			<path style="fill:#894B19;" d="M1059.348,351.074c4.426,4.426,12.591,4.81,16.97,0c1.227-1.348,2.454-2.696,3.682-4.044V311.42
				c-6.884,7.561-13.768,15.123-20.652,22.684C1054.986,338.894,1054.614,346.34,1059.348,351.074z"/>
			<path style="fill:#894B19;" d="M1072.547,384.465c-25.975,18.261-36.674,52.589-22.821,81.702
				c6.269,13.176,17.305,23.536,30.274,29.579v-28.517c-8.968-8.494-13.282-18.959-12.499-31.259
				c0.602-9.455,5.375-19.724,12.499-26.831v-26.235C1077.415,382.501,1074.751,382.915,1072.547,384.465z"/>
			<path style="fill:#894B19;" d="M540.779,282.161c-20.071,24.793-21.368,61.401,0.69,85.544
				c21.139,23.136,57.764,27.455,82.778,8.251c14.059-10.793,22.512-26.09,24.419-43.66c0.7-6.453-6.017-12-12-12
				c-7.07,0-11.298,5.529-12,12c-1.112,10.249-8.719,21.241-18.398,27.01c-10.285,6.131-22.716,6.627-33.555,1.753
				c-11.85-5.328-19.923-14.753-22.749-27.319c-2.556-11.368,0.195-25.233,7.785-34.608c4.074-5.033,4.921-12.05,0-16.971
				C553.537,277.948,544.878,277.098,540.779,282.161z"/>
			<path style="fill:#894B19;" d="M588.04,348.488c11.266-0.51,21.912-8.591,24.638-19.698c1.753-7.14-0.678-14.369-6.492-18.839
				c-4.739-3.643-10.582-6.093-15.843-8.899c-1.753-0.934-3.658-1.427-5.554-1.501c-3.578-1.798-7.988-2.038-11.33,0.32
				c-9.492,6.696-15.139,18.37-11.437,29.977C565.519,340.816,576.362,349.017,588.04,348.488z"/>
			<path style="fill:#894B19;" d="M1064.86,537.867c5.047-0.074,10.093-0.148,15.14-0.222v-24
				c-5.047,0.074-10.093,0.148-15.14,0.222C1049.431,514.094,1049.385,538.095,1064.86,537.867z"/>
			<path style="fill:#894B19;" d="M1068.242,594.732c3.919-0.084,7.839-0.169,11.758-0.253v-48.34
				c-7.892,9.787-15.28,19.982-22.12,30.536C1052.938,584.301,1059.402,594.922,1068.242,594.732z"/>
			<path style="fill:#894B19;" d="M685.532,40.802c16.02-0.345,32.04-0.689,48.06-1.034c15.421-0.332,15.476-24.333,0-24
				c-8.231,0.177-16.461,0.354-24.692,0.531c4.191-5.573,8.563-11.001,13.093-16.299h-30.805
				c-5.622,7.376-10.972,14.96-16.018,22.745C670.229,30.37,676.693,40.992,685.532,40.802z"/>
			<path style="fill:#894B19;" d="M1062.716,632.488c5.761-0.1,11.522-0.201,17.284-0.301v-24c-5.761,0.1-11.522,0.201-17.284,0.301
				C1047.29,608.757,1047.241,632.758,1062.716,632.488z"/>
			<path style="fill:#894B19;" d="M1065.001,669.571c15.443,0,15.469-24,0-24C1049.558,645.571,1049.532,669.571,1065.001,669.571z"
				/>
			<path style="fill:#894B19;" d="M1025.104,707.499c18.299-0.248,36.597-0.497,54.896-0.745v-24
				c-18.299,0.248-36.597,0.497-54.896,0.745C1009.673,683.708,1009.629,707.709,1025.104,707.499z"/>
			<path style="fill:#894B19;" d="M1050.483,749.073c9.839,10.595,19.678,21.19,29.517,31.784v-53.951
				c-7.01,0.561-14.021,1.121-21.031,1.682C1048.641,729.414,1043.096,741.118,1050.483,749.073z"/>
			<path style="fill:#894B19;" d="M1032.525,758.839c-4.755,4.755-4.396,12.182,0,16.971c15.825,17.238,31.65,34.476,47.475,51.714
				v-35.456c-10.168-11.076-20.336-22.152-30.504-33.228C1045.111,754.063,1036.97,754.394,1032.525,758.839z"/>
			<path style="fill:#894B19;" d="M1050.748,830.468c-1.607,1.607-2.726,3.893-3.213,6.327c-0.551,1.36-0.844,2.831-0.782,4.362
				c0.391,9.641,0.782,19.282,1.174,28.922c0.394,9.711-1.548,23.191,7.23,29.735c6.569,4.897,16.461,4.178,24.844,3.959v-24.099
				c-0.284-0.004-0.569-0.008-0.854-0.012c-2.126-0.03-4.506-0.274-6.847-0.384c-0.033-0.817-0.066-1.634-0.099-2.45
				c-0.155-3.827-0.311-7.655-0.466-11.482c2.797,2.565,5.547,5.179,8.266,7.824v-32.517c-4.026-3.471-8.108-6.88-12.282-10.185
				C1062.642,826.449,1055.703,825.513,1050.748,830.468z"/>
			<path style="fill:#894B19;" d="M1056.459,936.428c-0.491,4.522,0.328,8.862,2.099,12.797c-8.39,5.691-13.389,15.54-12.078,25.844
				c1.566,12.311,10.414,21.453,21.77,25.689c3.833,1.43,7.771,2.148,11.75,2.391v-23.914c-4.775-0.476-8.726-2.278-9.741-6.767
				c-0.254-1.122-0.374-1.794,0.628-2.516c-0.077,0.055,2.475-1.7,2.781-1.821c2.014-0.801,4.154-1.09,6.333-1.079v-27.246
				c-0.042,0.057-0.052,0.018,0-0.152v-27.096c-2.693,0.572-5.344,1.429-7.933,2.678
				C1063.75,919.249,1057.463,927.171,1056.459,936.428z"/>
			<path style="fill:#894B19;" d="M1058.153,1045.005c7.282,0.004,14.565,0.007,21.847,0.011v-24.003
				c-7.282-0.002-14.565-0.004-21.847-0.008C1042.71,1020.997,1042.685,1044.997,1058.153,1045.005z"/>
			<path style="fill:#894B19;" d="M147.008,757.724c-0.501-15.405-24.503-15.474-24,0c0.477,14.668-0.477,29.335,0,44.003
				c0.501,15.405,24.503,15.474,24,0C146.531,787.059,147.485,772.392,147.008,757.724z"/>
			<path style="fill:#894B19;" d="M186.181,757.724c-0.501-15.405-24.503-15.474-24,0c0.477,14.668-0.477,29.335,0,44.003
				c0.501,15.405,24.503,15.474,24,0C185.704,787.059,186.658,772.392,186.181,757.724z"/>
			<path style="fill:#894B19;" d="M335.228,643.81c-0.918,5.66-0.707,11.09-0.629,16.79c0.091,6.635-0.072,13.266,0.159,19.899
				c0.538,15.401,24.54,15.473,24,0c-0.345-9.89-0.845-20.19-0.291-30.065c0.153-2.724,0.559-4.977,2.191-7.404
				c-0.32,0.476,0.788-0.83,1.685-1.11c1.668-0.52,3.512-0.569,5.261-0.628c11.595-0.394,23.285,0.148,34.879,0.382
				c30.206,0.61,60.405,1.478,90.61,2.135c13.107,0.285,26.219,0.58,39.33,0.582c15.443,0.003,15.468-23.997,0-24
				c-28.492-0.004-56.994-0.982-85.475-1.685c-15.788-0.39-31.576-0.782-47.366-1.09c-6.394-0.125-12.789-0.236-19.184-0.304
				c-7.504-0.08-15.282-0.556-22.65,1.093C345.347,621.181,337.206,631.612,335.228,643.81z"/>
			<path style="fill:#894B19;" d="M104.429,82.714c15.443,0,15.468-24,0-24C88.986,58.714,88.96,82.714,104.429,82.714z"/>
			<path style="fill:#894B19;" d="M104.429,47.857c15.443,0,15.468-24,0-24C88.986,23.857,88.96,47.857,104.429,47.857z"/>
			<path style="fill:#894B19;" d="M168.249,41.743c4.084,14.885,17.595,26.75,32.693,29.531c16.725,3.08,34.505-3.209,45.795-15.943
				C260.364,39.964,264.713,19.23,260.734,0h-24.62c1.472,4.347,2.25,8.976,2.235,13.694c-0.055,16.854-13.032,37.84-32.448,34.16
				c-4.362-0.827-7.886-2.881-10.868-6.065c-2.931-3.13-4.24-6.934-4.107-10.785c0.105-3.022,1.468-6.645,3.654-9.036
				c-0.027,0.029,1.401-1.004,2.746-1.857c0.782,4.398,3.65,8.192,8.414,9.501c5.86,1.61,13.548-1.982,14.761-8.381
				c1.53-8.066-0.972-16.21-7.333-21.231h-29.356c-0.219,0.142-0.445,0.277-0.66,0.425C170.117,9.418,164.057,26.461,168.249,41.743
				z M199.638,19.118c0.008,0.114,0.029,0.193,0.031,0.305c-0.304-0.034-0.571-0.103-0.816-0.194
				C199.313,19.009,199.625,18.93,199.638,19.118z M197.36,14.851c-0.061,0.323-0.104,0.647-0.144,0.971
				C197.237,15.503,197.278,15.18,197.36,14.851z"/>
			<path style="fill:#894B19;" d="M134.98,65.066c0.407,6.469,5.224,12,12,12c6.181,0,12.409-5.498,12-12
				c-1.348-21.409-3.281-45.328,5.814-65.066h-25.557C133.088,20.672,133.657,44.067,134.98,65.066z"/>
			<path style="fill:#894B19;" d="M845.334,571.292c-14.6,7.228-24.485,23.173-24.099,39.518
				c0.441,18.617,14.365,34.946,32.983,37.412c9.339,1.237,19.531-1.301,25.793-8.718c7.014-8.308,7.03-21.142-1.031-28.786
				c-10.174-9.648-25.122,3.431-19.378,13.895c-3.366,0.33-6.834-1.143-9.367-3.393c-5.692-5.057-6.425-12.682-2.972-19.625
				c8.94-17.975,33.37-13.123,45.524-0.903c13.328,13.399,16.015,34.196,6.553,49.35c-4.083,6.539-11.186,12.587-18.232,14.873
				c-9.406,3.051-19.014,2.019-28.253-1.557c-23.208-8.981-37.141-32.093-49.753-52.137c-8.205-13.041-28.981-1.01-20.723,12.113
				c16.995,27.011,36.353,55.26,68.656,64.686c31.167,9.094,62.775-6.741,74.371-36.951c11.38-29.65-4.394-66.394-32.942-79.687
				C877.302,564.323,860.454,563.807,845.334,571.292z M862.122,623.649c0.112,0.118-0.026,0.247-0.271,0.369
				C861.95,623.729,862.051,623.574,862.122,623.649z"/>
			<path style="fill:#894B19;" d="M262.223,61.08c-10.675,11.164,6.271,28.161,16.971,16.971
				c19.157-20.034,30.258-47.807,28.75-75.654c-0.043-0.8-0.098-1.599-0.16-2.397h-24.037c0.071,0.798,0.154,1.594,0.197,2.397
				C285.116,24.059,277.219,45.397,262.223,61.08z"/>
			<path style="fill:#894B19;" d="M331.376,17.439c7.848,5.397,18.334,5.097,27.459,5.07c15.482-0.046,30.959-0.369,46.441-0.217
				c14.926,0.147,29.897,1.639,44.816,1.315c11.653-0.253,22.835-2.794,31.727-10.718c4.149-3.697,6.718-8.168,7.858-12.889H320.638
				C321.961,6.985,325.596,13.463,331.376,17.439z"/>
			<path style="fill:#894B19;" d="M504.348,22.094c-6.303,11.076-19.352,11.626-30.981,11.903
				c-34.166,0.815-68.341,1.345-102.509,2.016c-15.424,0.303-15.476,24.304,0,24c19.783-0.389,39.567-0.778,59.35-1.166
				c18.072-0.355,36.564,0.384,54.555-1.47c17.664-1.821,33.659-9.181,41.723-25.894c4.899-10.153,6.208-20.756,5.85-31.483h-23.679
				C509.027,7.742,508.171,15.376,504.348,22.094z"/>
			<path style="fill:#894B19;" d="M330.143,58.714c15.443,0,15.468-24,0-24C314.7,34.714,314.674,58.714,330.143,58.714z"/>
			<path style="fill:#894B19;" d="M573,30.143c0-10.048,0-20.095,0-30.143h-24c0,10.048,0,20.095,0,30.143
				C549,45.586,573,45.611,573,30.143z"/>
			<path style="fill:#894B19;" d="M613.383,30.143c0-10.048,0-20.095,0-30.143h-24c0,10.048,0,20.095,0,30.143
				C589.383,45.586,613.383,45.611,613.383,30.143z"/>
			<path style="fill:#894B19;" d="M653.767,30.143c0-10.048,0-20.095,0-30.143h-24c0,10.048,0,20.095,0,30.143
				C629.767,45.586,653.767,45.611,653.767,30.143z"/>
			<path style="fill:#894B19;" d="M841.468,539.875c0-19.238,0-38.476,0-57.714c0-15.443-24-15.468-24,0c0,19.238,0,38.476,0,57.714
				C817.468,555.318,841.468,555.344,841.468,539.875z"/>
			<path style="fill:#894B19;" d="M857.852,482.161c0,19.238,0,38.476,0,57.714c0,15.443,24,15.468,24,0c0-19.238,0-38.476,0-57.714
				C881.852,466.718,857.852,466.693,857.852,482.161z"/>
			<path style="fill:#894B19;" d="M922.235,539.875c0-19.238,0-38.476,0-57.714c0-15.443-24-15.468-24,0c0,19.238,0,38.476,0,57.714
				C898.235,555.318,922.235,555.344,922.235,539.875z"/>
			<path style="fill:#894B19;" d="M849.799,72.25c-5.248,1.62-9.924,2.025-14.948-0.484c-6.373-3.183-11.345-9.183-16.334-14.099
				c-14.203-13.996-28.406-27.993-42.608-41.989c-11.011-10.851-27.994,6.108-16.971,16.97
				c14.203,13.997,28.406,27.993,42.608,41.99c6.334,6.242,12.657,13.058,20.481,17.471c8.432,4.757,17.804,6.188,27.31,4.771
				c16.886-2.517,31.48-13.688,42.927-25.785c11.264-11.905,20.344-25.774,26.781-40.832c4.177-9.77,7.272-19.902,9.199-30.262
				h-24.43c-3.863,17.565-11.73,34.324-23.259,48.19C872.44,57.949,862.244,68.407,849.799,72.25z"/>
			<path style="fill:#894B19;" d="M957.82,20.598c1.498-5.393,2.996-10.787,4.494-16.18c0.24-0.862,0.545-1.775,0.858-2.705
				c0.107,0.09,0.221,0.183,0.318,0.269c1.948,1.743,3.895,3.486,5.843,5.229c4.382,3.922,8.764,7.844,13.146,11.766
				c4.296,3.845,8.633,7.99,14.379,9.439c6.385,1.61,12.869-0.56,17.488-5.125c3.857-3.813,6.504-9.309,9.324-13.883
				c1.934-3.136,3.867-6.272,5.801-9.408h-28.192c-0.446,0.723-0.892,1.446-1.338,2.17c-0.729-0.732-1.477-1.452-2.228-2.17h-59.086
				c-1.316,4.739-2.632,9.479-3.949,14.218C930.538,29.122,953.686,35.483,957.82,20.598z"/>
			<path style="fill:#894B19;" d="M1018.604,101.382c5.156,3.935,13.43,0.803,16.418-4.305c3.61-6.173,0.863-12.473-4.305-16.418
				c-16.467-12.569-31.637-26.865-45.541-42.203c-4.355-4.803-12.546-4.425-16.971,0c-4.778,4.778-4.366,12.155,0,16.971
				C983.549,72.351,1000.454,87.528,1018.604,101.382z"/>
			<path style="fill:#894B19;" d="M1025.571,55.857c15.443,0,15.468-24,0-24C1010.129,31.857,1010.103,55.857,1025.571,55.857z"/>
			<path style="fill:#894B19;" d="M887.624,128.807c12.353-9.892,24.705-19.783,37.058-29.675
				c3.746,15.442,7.492,30.884,11.237,46.326c1.891,7.797,11.013,10.699,17.628,7.172c11.726-6.252,23.453-12.504,35.179-18.757
				c3.531,16.533,7.063,33.067,10.594,49.6c1.354,6.34,8.774,10.027,14.761,8.381c6.56-1.803,9.74-8.402,8.381-14.761
				c-4.591-21.492-9.181-42.984-13.772-64.476c-1.683-7.881-11.172-10.614-17.628-7.172c-11.854,6.32-23.707,12.64-35.561,18.96
				c-4.005-16.512-8.011-33.024-12.016-49.536c-2.321-9.568-13.414-10.615-20.057-5.295c-17.592,14.087-35.184,28.175-52.776,42.262
				c-5.063,4.054-4.227,12.743,0,16.971C875.656,133.81,882.549,132.872,887.624,128.807z"/>
			<path style="fill:#894B19;" d="M906.573,1054.779c0.009,8.442-0.929,16.92-2.753,25.221h24.429
				c1.539-8.283,2.333-16.712,2.323-25.221C930.557,1039.337,906.557,1039.31,906.573,1054.779z"/>
			<path style="fill:#894B19;" d="M799.958,1020.516c-17.463,6.431-30.567,19.041-37.554,36.25
				c-2.439,6.007,2.652,13.187,8.381,14.761c6.864,1.886,12.313-2.352,14.761-8.381c4.409-10.859,15.781-18.962,27.673-21.483
				c10.711-2.271,22.878,1.482,31.378,9.246c8.714,7.959,13.236,17.7,13.229,29.091h23.768c0.067-9.219-1.862-18.553-6.075-27.406
				C862.475,1025.174,828.811,1009.891,799.958,1020.516z"/>
			<path style="fill:#894B19;" d="M825.083,1057.659c-10.968-2.568-23.56,2.403-29.099,12.411c-1.743,3.149-2.521,6.571-2.352,9.93
				h51.222C843.399,1069.509,835.595,1060.12,825.083,1057.659z"/>
			<path style="fill:#894B19;" d="M1048.729,1070.082c0.048,3.306,0.095,6.612,0.143,9.918h24c-0.048-3.306-0.095-6.612-0.143-9.918
				C1072.507,1054.651,1048.506,1054.607,1048.729,1070.082z"/>
			<path style="fill:#894B19;" d="M732.379,1039.109c-16.743,0.246-33.486,0.492-50.229,0.738c-15.43,0.227-15.475,24.228,0,24
				c7.429-0.109,14.858-0.219,22.287-0.328c-4.603,5.359-9.037,10.86-13.318,16.48h30.796c6.021-7.046,12.331-13.856,18.948-20.406
				C748.184,1052.35,742.803,1038.956,732.379,1039.109z"/>
			<path style="fill:#894B19;" d="M183.675,1080h29.599c-0.962-0.77-2.007-1.473-3.148-2.088
				C201.824,1073.438,191.374,1074.935,183.675,1080z"/>
			<path style="fill:#894B19;" d="M204.487,1029.537c-15.497-1.336-30.31,4.326-42.128,14.104
				c-11.931,9.872-19.043,22.507-23.149,36.358h25.543c0.447-0.974,0.912-1.941,1.413-2.894c4.429-8.409,10.348-15.47,18.54-19.929
				c7.245-3.944,16.126-4.753,23.971-2.868c13.503,3.245,23.313,13.327,27.468,25.691h24.608
				c-2.292-11.153-7.378-21.806-15.098-30.614C235.242,1037.506,220.038,1030.878,204.487,1029.537z"/>
			<path style="fill:#894B19;" d="M477.186,391.493c-29.718,24.589-29.585,66.301-27.379,101.336c0.407,6.469,5.224,12,12,12
				c6.181,0,12.409-5.498,12-12c-1.412-22.432-3.477-47.624,7.187-67.871c4.429-8.409,10.348-15.47,18.54-19.929
				c7.245-3.944,16.126-4.753,23.971-2.868c18.223,4.379,29.731,21.205,29.672,39.296c-0.055,16.854-13.032,37.84-32.448,34.16
				c-4.362-0.827-7.886-2.881-10.868-6.065c-2.93-3.13-4.24-6.934-4.106-10.785c0.104-3.022,1.468-6.645,3.654-9.036
				c-0.027,0.029,1.401-1.004,2.746-1.857c0.782,4.398,3.65,8.192,8.414,9.501c5.86,1.61,13.548-1.982,14.761-8.381
				c1.754-9.249-1.789-18.602-10.377-23.23c-8.488-4.574-19.229-2.917-26.972,2.424c-13.037,8.993-19.098,26.036-14.905,41.318
				c4.084,14.885,17.595,26.75,32.693,29.531c16.724,3.081,34.505-3.209,45.795-15.943c21.506-24.254,19.932-61.882-1.083-85.856
				c-10.413-11.879-25.617-18.508-41.168-19.848C503.818,376.053,489.004,381.715,477.186,391.493z M514.466,446.881
				c0.008,0.114,0.029,0.193,0.032,0.305c-0.304-0.034-0.572-0.103-0.816-0.194C514.141,446.771,514.453,446.693,514.466,446.881z
				 M512.188,442.613c-0.061,0.323-0.104,0.648-0.144,0.971C512.065,443.266,512.106,442.943,512.188,442.613z"/>
			<path style="fill:#894B19;" d="M273.356,1010.766c-4.878-4.261-12.17-4.8-16.97,0c-4.351,4.351-4.901,12.689,0,16.971
				c15.247,13.318,25.608,32.102,27.368,52.263h24.036C305.751,1053.568,293.374,1028.253,273.356,1010.766z"/>
			<path style="fill:#894B19;" d="M344.541,1077.353c0.06,0.094,0.152,0.19,0.268,0.285c-0.002-0.046-0.004-0.091-0.008-0.138
				C344.705,1077.447,344.616,1077.397,344.541,1077.353z"/>
			<path style="fill:#894B19;" d="M344.521,1077.31c0.091,0.056,0.185,0.108,0.276,0.164c-0.001-0.009-0.002-0.018-0.003-0.027
				c-0.087-0.05-0.18-0.103-0.278-0.159C344.518,1077.296,344.52,1077.302,344.521,1077.31z"/>
			<path style="fill:#894B19;" d="M345.457,1077.862c-0.225-0.121-0.442-0.255-0.659-0.388c0.001,0.009,0.002,0.018,0.003,0.027
				C344.984,1077.604,345.193,1077.719,345.457,1077.862z"/>
			<path style="fill:#894B19;" d="M344.478,1077.092c0.001,0.006,0.003,0.015,0.004,0.021c0.086,0.03,0.181,0.064,0.284,0.102
				C344.708,1076.844,344.604,1076.605,344.478,1077.092z"/>
			<path style="fill:#894B19;" d="M481.413,1053.626c-8.151-7.982-19.056-9.171-29.916-8.27
				c-15.081,1.252-29.976,2.858-45.139,2.955c-14.348,0.092-28.689-0.476-43.007-1.353c-12.125-0.743-26.934-2.583-35.99,7.49
				c-0.498,0.554-0.939,1.146-1.332,1.761c-0.184,0.22-0.37,0.438-0.545,0.668c-4.854,6.36-6.372,15.083-4.826,23.123h168.997
				C491.888,1070.898,488.793,1060.854,481.413,1053.626z M464.07,1070.265C464.507,1070.617,464.733,1070.873,464.07,1070.265
				L464.07,1070.265z M462.951,1069.602C462.379,1069.407,461.904,1069.242,462.951,1069.602L462.951,1069.602z M345.292,1070.752
				c-0.08,0.017-0.191,0.045-0.324,0.08C345.29,1070.599,345.431,1070.613,345.292,1070.752z M344.925,1070.865
				c0.002-0.002,0.005-0.004,0.007-0.005c0.12-0.032,0.238-0.067,0.356-0.102c-0.074,0.071-0.238,0.17-0.461,0.276
				C344.856,1070.978,344.893,1070.92,344.925,1070.865z M344.624,1071.125c0.016-0.006,0.031-0.011,0.046-0.017
				c-0.016,0.007-0.032,0.013-0.049,0.02C344.622,1071.127,344.623,1071.126,344.624,1071.125z M343.948,1076.969
				c0.039,0.021,0.066,0.037,0.103,0.058c0.001,0.002,0.002,0.003,0.004,0.006C344.019,1077.012,343.984,1076.989,343.948,1076.969z
				 M466.551,1074.181c-0.667,0.681-1.377,1.294-2.062,1.958c2.42-2.344-1.134,0.638-2.066,1.186
				c-0.56,0.329-3.296,1.184-0.658,0.361c-0.945,0.295-1.87,0.62-2.831,0.868c-0.996,0.257-2.001,0.436-3.009,0.634
				c2.689-0.53-0.755,0.07-1.129,0.101c-11.41,0.948-23.03-0.391-34.439-0.775c-13.79-0.464-27.594-0.394-41.389-0.285
				c-6.938,0.055-13.876,0.185-20.814,0.193c-2.381,0.003-4.763-0.007-7.142-0.103c-0.992-0.04-1.981-0.123-2.972-0.169
				c-0.329-0.015-0.57-0.022-0.774-0.026c-0.058-0.021-0.123-0.044-0.212-0.071c-0.564-0.171-1.591-0.581-2.289-0.838
				c0.012,0.074,0.021,0.151,0.029,0.231c2.227,1.289,0.748,0.797,0.014,0.192c0.026,0.505-0.047,0.843-0.28-0.292
				c0.003,0.002,0.008,0.005,0.012,0.007c-0.006-0.009-0.011-0.018-0.016-0.027c-0.001-0.006-0.002-0.01-0.003-0.016
				c-0.003-0.002-0.006-0.004-0.009-0.005c-0.005-0.01-0.013-0.02-0.017-0.029c0.007,0.004,0.015,0.008,0.022,0.012
				c-0.011-0.056-0.022-0.111-0.034-0.174c-0.003-0.001-0.007-0.002-0.01-0.003c0.002-0.008,0.004-0.01,0.006-0.018
				c-0.03-0.161-0.062-0.332-0.097-0.541c0.071,0.421-0.226-1.509-0.248-2.071c-0.055-1.439,0.125-2.381,0.681-3.427
				c0.496-0.191,0.932-0.39,0.537-0.314c0.219-0.066,0.433-0.135,0.632-0.214c0.06-0.024,0.096-0.042,0.147-0.063
				c0.055,0.002,0.095,0.005,0.158,0.007c4.91,0.093,9.778,0.046,14.697,0.344c9.844,0.596,19.687,1.116,29.547,1.351
				c13.424,0.32,26.884,0.242,40.277-0.801c10.113-0.787,20.093-1.954,30.222-2.24c0.065-0.002,0.105-0.006,0.162-0.008
				c0.056,0.023,0.098,0.043,0.165,0.069c0.6,0.233,1.315,0.404,1.974,0.573c0.213,0.113,0.45,0.281,0.655,0.442
				c0.307,0.288,0.615,0.574,0.917,0.873c0.147,0.145,0.483,0.608,0.735,0.959c0.267,0.492,0.755,1.363,0.961,1.679
				C466.32,1073.684,465.941,1074.719,466.551,1074.181z"/>
			<path style="fill:#894B19;" d="M514.689,1046.837c-6.787,1.865-9.449,8.345-8.381,14.761c0.987,5.93,2.064,12.201,2.353,18.401
				h23.68c-0.267-8.235-1.519-16.545-2.89-24.782C528.386,1048.821,520.471,1045.248,514.689,1046.837z"/>
			<path style="fill:#894B19;" d="M549,1052.339c0,9.22,0,18.44,0,27.661h24c0-9.22,0-18.44,0-27.661
				C573,1036.897,549,1036.871,549,1052.339z"/>
			<path style="fill:#894B19;" d="M589.383,1052.339c0,9.22,0,18.44,0,27.661h24c0-9.22,0-18.44,0-27.661
				C613.383,1036.897,589.383,1036.871,589.383,1052.339z"/>
			<path style="fill:#894B19;" d="M629.767,1052.339c0,9.22,0,18.44,0,27.661h24c0-9.22,0-18.44,0-27.661
				C653.767,1036.897,629.767,1036.871,629.767,1052.339z"/>
			<path style="fill:#894B19;" d="M417.106,532.397c0,19.238,0,38.476,0,57.714c0,15.443,24,15.468,24,0c0-19.238,0-38.476,0-57.714
				C441.106,516.955,417.106,516.929,417.106,532.397z"/>
			<path style="fill:#894B19;" d="M457.489,532.397c0,19.238,0,38.476,0,57.714c0,15.443,24,15.468,24,0c0-19.238,0-38.476,0-57.714
				C481.489,516.955,457.489,516.929,457.489,532.397z"/>
			<path style="fill:#894B19;" d="M497.873,532.397c0,19.238,0,38.476,0,57.714c0,15.443,24,15.468,24,0c0-19.238,0-38.476,0-57.714
				C521.873,516.955,497.873,516.929,497.873,532.397z"/>
			<path style="fill:#894B19;" d="M1011.787,1062.867c-2.947,4.78-5.894,9.559-8.841,14.339c-0.574,0.931-1.148,1.863-1.723,2.794
				h28.192c1.031-1.673,2.063-3.346,3.095-5.02C1040.638,1061.797,1019.887,1049.729,1011.787,1062.867z"/>
			<path style="fill:#894B19;" d="M963.744,1053.858c-6.805-1.626-13.727,0.94-17.943,6.451c-3.473,4.539-4.6,10.333-6.101,15.737
				c-0.366,1.318-0.732,2.636-1.098,3.955h59.202c-6.452-6.168-13.68-11.836-20.265-17.692
				C973.435,1058.659,969.199,1055.161,963.744,1053.858z M964.748,1074.88c0.023-0.271,0.059-0.411,0.137-0.112
				C964.84,1074.808,964.794,1074.84,964.748,1074.88z"/>
			<path style="fill:#894B19;" d="M139.286,1017.571c-15.443,0-15.468,24,0,24C154.729,1041.571,154.754,1017.571,139.286,1017.571z
				"/>
			<path style="fill:#894B19;" d="M178.143,997.571c-15.443,0-15.469,24,0,24C193.586,1021.571,193.611,997.571,178.143,997.571z"/>
			<path style="fill:#894B19;" d="M222.714,993.571c-15.443,0-15.469,24,0,24C238.157,1017.571,238.183,993.571,222.714,993.571z"/>
			<path style="fill:#894B19;" d="M1025.486,996.286c-15.443,0-15.468,24,0,24C1040.929,1020.286,1040.954,996.286,1025.486,996.286
				z"/>
			<path style="fill:#894B19;" d="M1026.518,903.577c-13.941,18.01-21.943,38.972-22.549,61.851c-0.409,15.45,23.591,15.44,24,0
				c0.423-15.974,5.672-32.158,15.519-44.88c3.963-5.12,4.99-11.98,0-16.971C1039.355,899.444,1030.508,898.422,1026.518,903.577z"
				/>
			<path style="fill:#894B19;" d="M1005.489,796.107c-7.653,11.13-15.305,22.26-22.958,33.389
				c-6.066-12.484-12.131-24.967-18.197-37.451c-2.05-4.218-7.595-6.385-11.957-5.729c-4.963,0.746-8.279,3.942-9.976,8.596
				c-10.706,29.364-19.498,59.374-26.328,89.849c-4.612-8.142-9.224-16.283-13.837-24.425c-4.279-7.553-16.579-8.062-20.723,0
				c-5.909,11.497-11.819,22.993-17.728,34.49c-9.136-25.523-18.271-51.047-27.407-76.57c-2.183-6.099-8.177-10.191-14.761-8.381
				c-5.898,1.621-10.576,8.631-8.381,14.762c12.338,34.471,24.677,68.943,37.015,103.414c3.228,9.018,16.874,12.709,21.933,2.867
				c6.732-13.096,13.463-26.193,20.195-39.289c6.241,11.017,12.482,22.033,18.723,33.05c4.772,8.424,20.067,7.547,21.933-2.867
				c5.601-31.254,13.251-62.09,22.886-92.32c4.823,9.926,9.646,19.852,14.469,29.777c4.234,8.714,16.037,6.815,20.723,0
				c4.603-6.694,9.206-13.388,13.808-20.083c0.411,14.232,0.822,28.463,1.233,42.694c0.445,15.411,24.447,15.475,24,0
				c-0.768-26.573-1.535-53.145-2.303-79.717C1027.494,789.807,1012.136,786.441,1005.489,796.107z"/>
			<path style="fill:#894B19;" d="M991.367,908.193c-1.899-18.264-20.809-27.784-36.958-19.912
				c-5.825,2.839-7.401,11.126-4.305,16.418c3.387,5.79,10.201,7.077,15.956,4.508c-0.43,0.157-0.1-0.117,0.365-0.16
				c0.032-0.015,0.065-0.027,0.097-0.043c-0.033,0.016-0.058,0.027-0.089,0.042c0.051-0.004,0.104-0.006,0.157-0.004
				c0.19,0.187,0.556,0.478,0.769,0.605c0.094,0.208,0.208,0.439,0.287,0.582c-0.016,0.188-0.035,0.418-0.06,0.708
				c0.128-1.483-0.557,1.79,0.046,0.604c-0.51,1.003-0.745,1.453-1.718,2.136c-1.126,0.791-2.527,0.682-3.968,0.653
				c-13.6-0.275-16.202,19.972-3.19,23.571c4.197,1.161,9.682,2.434,12.337,5.76c0.202,0.253,0.433,0.874,0.617,1.327
				c-5.079,1.561-9.028,5.403-9.028,11.353c0,5.847,5.526,12.827,12,12c7.449-0.951,13.682-3.937,17.766-10.533
				c3.486-5.63,4.358-12.611,2.602-18.971c-1.491-5.396-4.4-9.682-8.14-13.129C990.282,920.793,992.05,914.763,991.367,908.193z
				 M972.058,944.884c0.039-0.368,0.147-0.282,0.169-0.051C972.17,944.848,972.115,944.867,972.058,944.884z M972.703,944.716
				c0.333-0.116,0.92-0.238,1.981-0.374C974.011,944.428,973.351,944.558,972.703,944.716z"/>
			<path style="fill:#894B19;" d="M966.059,909.207c0.089-0.033,0.213-0.085,0.374-0.161c-0.003,0-0.006,0.001-0.009,0.001
				C966.304,909.105,966.181,909.153,966.059,909.207z"/>
			<path style="fill:#894B19;" d="M872.427,979.299c18.51-3.94,37.02-7.88,55.53-11.819c6.341-1.35,10.026-8.778,8.381-14.761
				c-1.804-6.564-8.401-9.735-14.761-8.381c-24.751,5.268-49.501,10.536-74.252,15.804c-9.559,2.034-10.655,13.641-5.295,20.057
				c15.714,18.811,31.428,37.622,47.142,56.432c4.158,4.977,12.676,4.294,16.971,0c4.927-4.927,4.168-11.981,0-16.971
				C894.904,1006.206,883.665,992.752,872.427,979.299z"/>
			<path style="fill:#894B19;" d="M831.857,928.429c-15.443,0-15.468,24,0,24C847.3,952.429,847.326,928.429,831.857,928.429z"/>
			<path style="fill:#894B19;" d="M817,916.286c15.443,0,15.468-24,0-24C801.557,892.286,801.532,916.286,817,916.286z"/>
			<path style="fill:#894B19;" d="M804.857,857.429c-15.443,0-15.468,24,0,24C820.3,881.429,820.326,857.429,804.857,857.429z"/>
			<path style="fill:#894B19;" d="M795.143,822.239c-15.443,0-15.469,24,0,24C810.586,846.239,810.611,822.239,795.143,822.239z"/>
			<path style="fill:#894B19;" d="M829.131,779.504c0.022,0.06,0.132,0.3,0.387,0.819c-0.027-0.069-0.057-0.14-0.087-0.21
				C829.335,779.908,829.231,779.707,829.131,779.504z"/>
			<path style="fill:#894B19;" d="M828.917,779.074c0.078,0.14,0.143,0.286,0.214,0.43c-0.035-0.094,0.141,0.242,0.299,0.609
				c0.111,0.241,0.221,0.483,0.34,0.721c-0.099-0.198-0.179-0.362-0.252-0.511c0.041,0.104,0.076,0.203,0.101,0.288
				c0.251,0.861,0.557,1.697,0.781,2.568c3.841,14.949,26.995,8.612,23.143-6.38c-6.107-23.768-32.539-39.315-56.165-30.975
				c-26.326,9.292-36.14,40.215-22.819,64.077c7.53,13.488,28.267,1.4,20.723-12.113c-0.371-0.664-0.725-1.331-1.064-2.012
				c-0.165-0.332-0.158-0.22-0.133-0.107c-0.035-0.125-0.107-0.371-0.247-0.829c-0.587-1.915-1.197-3.846-1.382-5.811
				c-0.358-3.823-0.002-5.737,0.782-8.337c0.598-1.983,1.579-3.614,2.641-5.393c0.065-0.109,0.124-0.206,0.178-0.295
				c0.329-0.384,0.65-0.777,0.994-1.146c2.54-2.72,4.198-4.12,8.378-5.438c4.168-1.314,7.503-0.997,11.299,0.125
				c0.831,0.246,1.63,0.552,2.445,0.834c0.035,0.025,0.061,0.044,0.102,0.072c1.273,0.865,2.723,1.406,3.958,2.37
				C826.258,774.187,827.01,775.632,828.917,779.074z M796.059,774.995C796.756,773.859,796.609,774.304,796.059,774.995
				L796.059,774.995z"/>
			<path style="fill:#894B19;" d="M812.429,778.571c-15.443,0-15.469,24,0,24C827.871,802.571,827.897,778.571,812.429,778.571z"/>
			<path style="fill:#894B19;" d="M526.205,884.987c3.029,2.945,4.41,6.017,5.287,9.389c0.224,0.86,0.384,1.729,0.571,2.595
				c0.004,0.064,0.009,0.116,0.012,0.188c0.043,1.013,0.11,2.012,0.09,3.027c-0.293,15.45,23.707,15.45,24,0
				c0.46-24.231-20.34-46.125-45.028-44.917c-28.425,1.391-46.389,28.941-39.899,55.816c3.624,15.007,26.773,8.652,23.143-6.38
				c-0.197-0.814-0.394-1.63-0.529-2.458c-0.138-0.766-0.135-0.752,0.009,0.044c-0.031-0.48-0.061-0.96-0.092-1.441
				c0.013-1.962-0.011-3.808,0.383-5.725c0.259-1.258,0.654-2.478,1.037-3.701c0.068-0.219,0.114-0.373,0.147-0.492
				c0.023-0.044,0.045-0.085,0.074-0.143c0.467-0.933,0.935-1.862,1.474-2.756c1.169-1.937,2.048-2.705,3.693-4.359
				c0.103-0.104,0.188-0.189,0.271-0.274c0.567-0.324,1.13-0.805,1.665-1.138c3.098-1.927,5.9-3.059,10.271-3.029
				c3.875,0.026,6.631,1.083,9.571,2.83c0.603,0.358,1.171,0.779,1.777,1.131c0.108,0.063,0.189,0.107,0.275,0.154
				c0.02,0.02,0.031,0.033,0.054,0.054C525.023,883.949,525.642,884.44,526.205,884.987z M532.063,896.961
				C531.834,895.845,531.995,895.818,532.063,896.961L532.063,896.961z"/>
			<path style="fill:#894B19;" d="M512.868,890.473c-15.443,0-15.468,24,0,24C528.311,914.473,528.337,890.473,512.868,890.473z"/>
			<path style="fill:#894B19;" d="M996.125,750.515c-2.79,4.082-5.581,8.164-8.371,12.245c-0.067,0.098-0.134,0.196-0.201,0.294
				c-0.08-0.128-0.159-0.256-0.239-0.383c-2.783-4.466-5.565-8.932-8.348-13.397c-8.151-13.081-28.923-1.046-20.723,12.113
				c3.826,6.141,7.652,12.281,11.479,18.422c4.117,6.607,8.064,14.612,16.926,14.982c9.187,0.384,13.412-7.603,17.923-14.202
				c4.092-5.987,8.185-11.973,12.277-17.96c3.659-5.353,1.009-13.31-4.305-16.418C1006.607,742.738,999.793,745.15,996.125,750.515z
				"/>
			<path style="fill:#894B19;" d="M1028.429,742.143c15.443,0,15.468-24,0-24C1012.986,718.143,1012.96,742.143,1028.429,742.143z"
				/>
			<path style="fill:#894B19;" d="M929.79,771.573c-5.397-3.157-13.411-1.462-16.418,4.305
				c-9.499,18.214-16.947,37.468-21.965,57.39c-3.773,14.981,19.367,21.372,23.143,6.38c4.528-17.978,10.972-35.218,19.545-51.657
				C937.091,782.247,935.571,774.955,929.79,771.573z"/>
			<path style="fill:#894B19;" d="M946.143,748.761c1.578-5.743-1.952-13.695-8.381-14.761c-13.443-2.229-27.712-1.628-39.459,6.112
				c-6.63,4.369-11.451,10.594-15.228,17.507c-6.113,11.189-10.569,23.377-15.101,35.264c-1.284,3.369-2.547,6.747-3.788,10.132
				c-2.911-3.676-7.453-5.697-12.473-4.317c-5.816,1.598-10.677,8.665-8.381,14.761c3.377,8.97,6.754,17.94,10.131,26.91
				c4.128,10.964,19.297,11.775,23.143,0c7.338-22.465,14.863-45.818,25.225-66.828c1.568-3.179,3.348-6.171,5.221-9.172
				c0.066-0.106,0.117-0.189,0.168-0.273c0.298-0.351,0.588-0.709,0.899-1.049c0.871-0.953,1.882-1.734,2.78-2.647
				c-2.083,2.118-0.641,0.49,0.789-0.366c1.89-1.132,3.745-1.876,5.875-2.439c2.63-0.695,4.927-0.902,7.676-0.895
				c1.426,0.004,2.843,0.114,4.266,0.2c0.474,0.029,0.737,0.04,0.88,0.043c0.037,0.023,0.263,0.079,0.996,0.2
				C937.768,758.202,944.3,755.47,946.143,748.761z"/>
			<path style="fill:#894B19;" d="M860.857,757.571c15.443,0,15.469-24,0-24C845.414,733.571,845.389,757.571,860.857,757.571z"/>
			<path style="fill:#894B19;" d="M796.642,912.334c-2.306-6.053-8.086-10.216-14.761-8.381c-5.797,1.593-10.7,8.673-8.381,14.762
				c7.754,20.358,15.509,40.716,23.263,61.075c-24.074,3.276-46.167,17.244-59.866,37.557c-3.625,5.375-1.033,13.296,4.305,16.418
				c5.908,3.455,12.785,1.083,16.418-4.305c12.459-18.475,34.594-27.901,56.314-26.159c7.32,0.587,14.228-8.215,11.571-15.19
				C815.884,962.852,806.263,937.593,796.642,912.334z"/>
			<path style="fill:#894B19;" d="M353.113,996.439c-9.647,0.852-18.857,4.494-26.298,10.372
				c-7.465-14.067-17.797-26.673-30.396-36.318c-20.39-15.61-47.566-18.988-71.753-11.064c-6.157,2.017-10.158,8.298-8.381,14.762
				c1.658,6.033,8.577,10.407,14.761,8.381c8.59-2.814,14.976-3.817,24.033-3.254c9.78,0.608,20.193,4.881,27.219,10.369
				c6.77,5.288,13.012,12.245,17.877,19.302c5.723,8.301,9.19,15.59,11.95,24.49c1.413,4.555,5.179,8.025,9.976,8.596
				c4.287,0.51,10.066-1.358,11.957-5.729c3.883-8.977,10.67-15.122,19.943-16.024c8.682-0.845,17.561,3.333,22.528,11.273
				c8.173,13.065,28.947,1.031,20.723-12.113C387.908,1004.542,370.987,994.86,353.113,996.439z"/>
			<path style="fill:#894B19;" d="M411.215,961.965c-26.406-14.172-59.469-13.094-85.028,2.475
				c-13.172,8.023-1.126,28.788,12.113,20.723c18.197-11.084,41.823-12.666,60.801-2.475c17.082,9.172,29.826,27.271,32.088,45.785
				c0.786,6.432,4.953,12,12,12c5.875,0,12.791-5.523,12-12C451.814,1000.854,436.095,975.318,411.215,961.965z"/>
			<path style="fill:#894B19;" d="M563.335,959.157c-0.91-7.67-1.707-15.244-6.696-21.498c-5.105-6.4-12.805-9.108-20.788-9.508
				c-11.278-0.565-23.129,1.276-34.367,2.403c-10.663,1.069-21.316,2.183-31.995,3.089c-6.03,0-12.598,5.508-12,12
				c0,0.574,0.064,1.151,0.159,1.727c2.077,22.549,4.153,45.098,6.23,67.647c0.555,6.026,5.062,12.593,12,12
				c27.071-2.314,54.143-4.628,81.214-6.941c5.869-0.502,12.81-5.12,12-12C567.173,991.769,565.269,975.461,563.335,959.157z
				 M538.004,952.546C538.289,952.658,538.289,952.727,538.004,952.546L538.004,952.546z M486.688,1002.093
				c-1.401-15.213-2.802-30.426-4.203-45.638c14.489-1.392,28.961-2.941,43.491-3.909c2.804-0.187,5.62-0.446,8.432-0.44
				c2.076,0.005,0.611,0.061,2.504,0.212c0.43,0.034,0.742,0.111,0.96,0.184c0.451,0.538,0.736,2.05,1.029,3.519
				c0.481,2.407,0.75,5.819,1.125,9.006c1.263,10.728,2.525,21.455,3.788,32.183C524.772,998.838,505.73,1000.466,486.688,1002.093z
				"/>
			<path style="fill:#894B19;" d="M821.253,224.034c-6.112,0-12.495,5.502-12,12c0,0.48,0.045,0.96,0.11,1.439
				c2.009,26.358,4.018,52.717,6.027,79.075c0.466,6.117,5.128,12.478,12,12c31.415-2.187,62.831-4.374,94.246-6.561
				c5.961-0.415,12.694-5.182,12-12c-1.87-18.377-3.74-36.754-5.609-55.131c-0.861-8.458-1.339-17.221-6.416-24.402
				c-5.714-8.083-14.958-11.252-24.535-11.628c-12.83-0.503-26.122,1.149-38.918,2.231
				C845.858,222.098,833.568,223.185,821.253,224.034z M897.842,242.855c1.453,0.143,3.017,0.201,3.899,1.031
				c2.75,2.587,2.383,11.93,2.786,15.894c1.327,13.041,2.654,26.082,3.981,39.122c-23.364,1.626-46.727,3.253-70.091,4.879
				c-1.441-18.903-2.882-37.807-4.323-56.71c17.537-1.388,35.052-3.016,52.628-3.907
				C890.359,242.98,894.204,242.498,897.842,242.855z"/>
			<path style="fill:#894B19;" d="M111.906,487.025c12.159,0.535,24.3,1.295,36.448,2.025c12.988,0.78,26.499,2.126,39.481,1.292
				c9.025-0.58,17.728-3.38,23.451-10.765c5.563-7.179,6.151-16.019,6.82-24.743c1.436-18.747,2.873-37.493,4.309-56.24
				c0.511-6.674-5.921-11.729-12-12c-31.46-1.403-62.92-2.807-94.38-4.21c-6.719-0.3-11.68,5.751-12,12
				c-1.376,26.881-2.753,53.762-4.129,80.643C99.574,481.504,105.659,487.025,111.906,487.025z M127.394,406.889
				c23.382,1.043,46.763,2.086,70.145,3.129c-0.968,12.636-1.936,25.272-2.905,37.908c-0.337,4.391,0.411,14.078-2.252,17.03
				c-2.404,2.664-10.825,1.411-14.906,1.306c-17.686-0.456-35.328-1.657-52.988-2.61
				C125.457,444.732,126.426,425.81,127.394,406.889z"/>
			<path style="fill:#894B19;" d="M458.535,84.742c2.009,26.359,4.018,52.717,6.027,79.076c0.466,6.117,5.128,12.478,12,12
				c31.415-2.187,62.831-4.374,94.246-6.561c5.961-0.415,12.694-5.183,12-12c-1.87-18.377-3.74-36.754-5.609-55.131
				c-0.861-8.459-1.339-17.222-6.416-24.403c-5.714-8.083-14.958-11.252-24.535-11.628c-12.83-0.504-26.122,1.149-38.918,2.231
				c-12.299,1.04-24.589,2.127-36.905,2.976c-6.112,0-12.495,5.502-12,12C458.425,83.783,458.47,84.263,458.535,84.742z
				 M535.894,90.433c3.637-0.185,7.482-0.666,11.12-0.309c1.453,0.143,3.017,0.201,3.899,1.031c2.75,2.587,2.383,11.93,2.786,15.894
				c1.327,13.041,2.654,26.082,3.98,39.122c-23.364,1.626-46.727,3.253-70.091,4.879c-1.441-18.903-2.882-37.807-4.323-56.71
				C500.804,92.952,518.318,91.325,535.894,90.433z"/>
			<path style="fill:#894B19;" d="M702.066,960.531c-9.016-4.128-19.682-4.415-28.58,0.265c-8.955,4.71-13.969,13.827-15.563,23.561
				c-0.42,2.568-0.734,5.16-1.039,7.744c-0.119,1.012-0.209,2.029-0.35,3.038c-0.022,0.155-0.04,0.284-0.054,0.393
				c-0.025,0.108-0.061,0.283-0.117,0.562c-0.337,1.705-0.734,3.433-1.36,5.058c0.157-0.406-1.341,2.458-1.017,2.042
				c-0.136,0.197-0.252,0.35-0.341,0.447c-0.245-0.006-0.44,0.031-0.273,0.145c-2.561-1.761-3.494-4.727-4.307-8.072
				c-2.264-9.318-2.688-18.831-8.179-27.09c-6.21-9.34-16.457-14.29-27.593-12.375c-9.906,1.703-19.007,8.942-23.414,17.922
				c-5.642,11.496-4.916,24.086-3.278,36.408c0.854,6.423,4.904,12,12,12c5.82,0,12.86-5.529,12-12
				c-1.011-7.603-2.807-16.64,0.004-24.061c0.868-2.293,1.968-3.795,3.383-4.935c1.506-1.214,3.169-2.014,4.693-1.888
				c-0.537,0.049,1.454,1.028,0.638,0.32c0.667,0.578,0.968,0.928,1.625,1.946c1.717,2.664,2.299,5.882,2.947,9.255
				c1.595,8.301,2.606,16.848,7.629,23.958c5.317,7.527,13.683,13.143,23.199,12.629c8.72-0.471,16.077-5.801,20.355-13.266
				c4.021-7.015,4.814-14.586,5.811-22.437c0.259-2.038,0.784-5.817,1.751-7.805c0.97-1.994,1.545-2.242,3.216-2.744
				c1.547-0.465,4.261-0.206,5.337,0.264c2.816,1.231,4.959,3.41,6.621,5.972c4.968,7.657,5.31,17.411,5.775,26.346
				c0.337,6.474,5.274,12,12,12c6.237,0,12.339-5.496,12-12C726.538,994.022,722.653,969.957,702.066,960.531z M653.333,1003.928
				C653.324,1004.094,652.634,1004.03,653.333,1003.928L653.333,1003.928z"/>
			<path style="fill:#894B19;" d="M715.585,917.36c-43.615,0.951-87.23,1.901-130.845,2.852c-15.421,0.336-15.476,24.337,0,24
				c43.615-0.951,87.23-1.901,130.845-2.852C731.006,941.024,731.06,917.023,715.585,917.36z"/>
			<path style="fill:#894B19;" d="M747.225,985.896c10.798-2.201,18.393-10.758,22.234-20.673
				c4.086-10.547,2.565-22.239-1.209-32.637c-3.571-9.838-9.774-19.693-10.591-30.327c-0.278-3.617,0.5-7.872,2.231-10.099
				c1.356-1.744,2.107-2.304,4.09-3.376c0.027-0.014,0.97-0.43,1.184-0.547c0.729-0.182,3.064-0.769,2.067-0.658
				c6.44-0.717,12-5.002,12-12c0-5.931-5.517-12.722-12-12c-11.821,1.316-22.435,6.953-28.653,17.434
				c-6.558,11.055-5.842,24.74-2.038,36.589c3.309,10.304,9.69,20.029,11.261,30.864c0.178,1.224,0.177,2.506,0.148,3.738
				c-0.007,0.278-0.28,2.409-0.138,1.749c-0.383,1.993-0.835,3.318-1.424,4.44c-1.051,2.002-0.894,2.05-2.432,3.232
				c-0.048,0.044-0.068,0.063-0.109,0.1c-0.216,0.127-0.433,0.254-0.65,0.381c-0.369,0.045-2.289,0.637-2.353,0.65
				c-6.353,1.295-10.015,8.816-8.381,14.761C734.279,984.121,740.853,987.194,747.225,985.896z"/>
			<path style="fill:#894B19;" d="M659.864,902.917c10.721,0.209,21.691,0.185,32.135-2.573
				c10.501-2.773,19.738-8.659,27.006-16.687c6.273-6.928,11.046-15.054,17.244-22.025c4.808-5.407,12.611-12.155,19.062-11.089
				c6.387,1.055,12.917-1.671,14.761-8.381c1.577-5.74-1.951-13.699-8.381-14.761c-11.599-1.916-22.404,0.809-31.882,7.811
				c-8.995,6.646-15.333,15.299-21.922,24.205c-4.892,6.613-10.417,13.554-18.293,16.589c-9.36,3.606-19.891,3.103-29.73,2.91
				C644.414,878.616,644.415,902.616,659.864,902.917z"/>
			<path style="fill:#894B19;" d="M674.143,859.427c15.443,0,15.468-24,0-24C658.7,835.427,658.674,859.427,674.143,859.427z"/>
			<path style="fill:#894B19;" d="M745.575,791.161c-55.618,0.455-111.237,0.909-166.855,1.363c-15.436,0.126-15.473,24.126,0,24
				c55.618-0.454,111.237-0.909,166.855-1.363C761.011,815.035,761.048,791.035,745.575,791.161z"/>
			<path style="fill:#894B19;" d="M994.703,724.159c1.962-9.893,3.924-19.786,5.886-29.679c1.259-6.351-1.812-12.956-8.381-14.761
				c-5.902-1.622-13.495,1.993-14.761,8.381c-0.93,4.689-1.859,9.377-2.789,14.065c-31.329-15.264-67.983-15.32-100.273-1.05
				c-5.929,2.62-7.314,11.275-4.305,16.418c3.574,6.111,10.467,6.935,16.418,4.305c29.756-13.15,64.054-8.683,90.578,9.492
				C983.188,735.519,993.258,731.444,994.703,724.159z"/>
			<path style="fill:#894B19;" d="M1032.797,533.915c-0.094-11.141,1.791-24.944-9.095-31.878
				c-5.503-3.506-12.047-3.506-18.328-3.283c-5.526,0.197-11.052,0.393-16.578,0.59c-10.496,0.373-20.992,0.747-31.488,1.12
				c-2.547,0.091-4.665,0.832-6.373,1.989c-3.263,1.798-5.642,5.132-5.627,10.011c0.149,47.464-0.625,94.924-0.476,142.388
				c0.02,6.285,5.484,12.274,12,12c20.946-0.88,41.797-2.092,62.756-1.45c6.59,0.202,11.859-5.664,12-12
				c0.409-18.314,0.816-36.629,1.23-54.943c0.317-14.041,0.499-28.073,0.28-42.117
				C1032.98,548.867,1032.86,541.391,1032.797,533.915z M1008.651,518.643c-0.101,0.074-0.144,0.498-0.153,1.094
				C1008.254,519.324,1008.244,518.941,1008.651,518.643z M1008.189,626.508c-0.11,4.91-0.219,9.821-0.329,14.731
				c-13.024-0.016-26.021,0.512-39.04,1.089c-0.001-39.473,0.508-78.945,0.498-118.418c13.082-0.694,26.265-1.547,39.273-1.31
				c0.068,1.2,0.147,2.275,0.148,2.543c0.018,4.918,0.061,9.835,0.117,14.752c0.071,6.27,0.188,12.539,0.277,18.809
				C1009.455,581.306,1008.694,603.913,1008.189,626.508z M1011.89,522.593c0.099,0.046,0.17,0.108,0.164,0.211
				C1012.057,522.759,1011.991,522.684,1011.89,522.593z"/>
			<path style="fill:#894B19;" d="M172.298,592.426c7.476-0.117,14.951-0.237,22.427-0.3c11.141-0.094,24.944,1.791,31.878-9.095
				c3.506-5.503,3.506-12.047,3.283-18.328c-0.197-5.526-0.393-11.052-0.59-16.578c-0.373-10.496-0.747-20.992-1.12-31.488
				c-0.091-2.547-0.832-4.665-1.989-6.373c-1.798-3.263-5.132-5.643-10.011-5.627c-47.464,0.149-94.925-0.625-142.388-0.476
				c-6.285,0.02-12.274,5.484-12,12c0.88,20.946,2.092,41.797,1.45,62.756c-0.202,6.59,5.664,11.859,12,12
				c18.314,0.409,36.629,0.816,54.943,1.23C144.222,592.464,158.255,592.645,172.298,592.426z M205.836,571.383
				c0.046,0.003,0.12-0.063,0.211-0.164C206.001,571.318,205.939,571.39,205.836,571.383z M209.997,567.981
				c-0.074-0.101-0.498-0.144-1.094-0.153C209.316,567.583,209.699,567.573,209.997,567.981z M87.401,567.189
				c0.016-13.024-0.512-26.022-1.089-39.04c39.473-0.001,78.945,0.508,118.418,0.498c0.694,13.082,1.548,26.265,1.31,39.273
				c-1.2,0.068-2.275,0.147-2.543,0.148c-4.918,0.018-9.835,0.061-14.752,0.117c-6.27,0.071-12.539,0.188-18.809,0.277
				c-22.602,0.323-45.209-0.439-67.804-0.944C97.222,567.408,92.312,567.298,87.401,567.189z"/>
			<path style="fill:#894B19;" d="M1032.286,470c-15.443,0-15.468,24,0,24C1047.729,494,1047.754,470,1032.286,470z"/>
			<path style="fill:#894B19;" d="M1041.286,354.893c-15.443,0-15.468,24,0,24C1056.729,378.893,1056.754,354.893,1041.286,354.893z
				"/>
			<path style="fill:#894B19;" d="M1025,388.143c-15.443,0-15.468,24,0,24C1040.443,412.143,1040.469,388.143,1025,388.143z"/>
			<path style="fill:#894B19;" d="M1017.714,454.277c15.443,0,15.468-24,0-24C1002.271,430.277,1002.246,454.277,1017.714,454.277z"
				/>
			<path style="fill:#894B19;" d="M981.623,372.025c-12.957,29.729-17.784,63.349-10.487,95.004
				c-6.186,0.21-12.372,0.419-18.557,0.629c-15.403,0.522-15.473,24.525,0,24c11.478-0.389,22.957-0.779,34.435-1.168
				c7.233-0.245,14.335-7.553,11.571-15.19c-11.051-30.539-8.382-64.777,5.105-94.17c13.335-29.062,34.894-52.96,59.857-72.59
				c5.099-4.009,4.199-12.772,0-16.97c-5.035-5.035-11.859-4.02-16.971,0C1019.373,312.963,995.547,340.077,981.623,372.025z"/>
			<path style="fill:#894B19;" d="M1033.731,239.336c4.363-8.107,2.977-17.755-3.047-24.599
				c-12.377-14.064-30.674-8.347-44.263,0.241c-13.023,8.23-0.994,29.007,12.113,20.723c3.363-2.126,7.246-5.084,11.334-5.668
				c-2.771,2.139-7.001,5.774-7.751,6.525c-4.431,4.435-7.265,10.558-7.127,16.888c0.15,6.914,4.113,13.198,10.303,16.212
				c3.203,1.559,6.726,2.223,10.286,2.043c1.286-0.065,3.48-0.096,5.406-0.406c-0.349,0.425-0.706,0.818-1.063,1.085
				c-2.439,1.829-5.382,3.164-8.086,4.535c-5.779,2.929-7.437,11.064-4.305,16.418c3.437,5.876,10.617,7.245,16.418,4.305
				c7.224-3.662,14.077-7.954,18.717-14.774c4.906-7.212,6.026-16.449,2.351-24.398c-3.237-7-9.61-11.546-17.079-12.375
				C1030.171,244.204,1032.247,242.092,1033.731,239.336z M1023.321,268.651c-0.016-0.056-0.024-0.104-0.018-0.136
				c0.002-0.008,0.003-0.011,0.005-0.019c0.014,0.03,0.033,0.066,0.05,0.1C1023.348,268.615,1023.334,268.633,1023.321,268.651z
				 M1023.388,268.257c0.044-0.073,0.073-0.035,0.066,0.063C1023.429,268.295,1023.41,268.278,1023.388,268.257z"/>
			<path style="fill:#894B19;" d="M916.459,154.257c0.227-0.475,0.445-0.956,0.699-1.416c0.438-0.792,0.87-1.581,1.353-2.346
				c8.27-13.098-12.489-25.154-20.723-12.113c-13.283,21.037-6.727,49.476,15.174,61.7c23.17,12.933,52.799,3.248,64.339-20.542
				c2.827-5.828,1.59-12.97-4.305-16.418c-5.265-3.079-13.578-1.55-16.418,4.305c-3.132,6.457-7.702,11.302-13.542,13.31
				c-6.424,2.209-12.423,1.701-17.961-1.378c-5.512-3.065-9.437-7.663-10.297-14.305c-0.523-4.046,0.322-6.497,1.606-10.574
				C916.411,154.395,916.434,154.329,916.459,154.257z M916.462,154.248C916.739,153.432,916.864,153.391,916.462,154.248
				L916.462,154.248z"/>
			<path style="fill:#894B19;" d="M984.424,326.446c6.002-1.649,10.446-8.589,8.381-14.761
				c-10.274-30.718-20.548-61.436-30.823-92.154c-2.055-6.144-8.271-10.165-14.761-8.381c-6.002,1.649-10.446,8.589-8.381,14.761
				c10.274,30.718,20.548,61.436,30.823,92.154C971.718,324.208,977.933,328.229,984.424,326.446z"/>
			<path style="fill:#894B19;" d="M738.689,67.797c40.737,34.396,81.474,68.793,122.211,103.189c4.948,4.178,12.116,4.854,16.971,0
				c4.289-4.289,4.974-12.77,0-16.97c-40.737-34.396-81.474-68.792-122.211-103.189c-4.949-4.178-12.117-4.854-16.971,0
				C734.4,55.116,733.715,63.597,738.689,67.797z"/>
			<path style="fill:#894B19;" d="M879.139,185c-15.443,0-15.469,24,0,24C894.582,209,894.608,185,879.139,185z"/>
			<path style="fill:#894B19;" d="M851.485,183.491c-23.419-21.357-48.287-41.07-71.723-62.406
				c-0.572-0.582-1.206-1.088-1.887-1.525c-4.746-3.251-11.247-3.154-15.527,1.126c-0.126,0.126-0.237,0.265-0.356,0.397
				c-1.899,1.913-3.139,4.604-3.159,8.088c-0.118,20.926,0.119,41.852,0,62.778c-0.037,6.489,5.528,11.998,12,12
				c24.056,0.009,48.111,0.017,72.167,0.026C853.038,203.98,859.304,190.622,851.485,183.491z M782.858,179.954
				c0.003-8.077-0.015-16.155-0.036-24.232c9.428,8.119,18.941,16.143,28.386,24.242
				C801.759,179.961,792.308,179.958,782.858,179.954z"/>
			<path style="fill:#894B19;" d="M785,215c-15.443,0-15.468,24,0,24C800.443,239,800.468,215,785,215z"/>
			<path style="fill:#894B19;" d="M785.857,250.571c-15.443,0-15.468,24,0,24C801.3,274.571,801.326,250.571,785.857,250.571z"/>
			<path style="fill:#894B19;" d="M787.143,287c-15.443,0-15.469,24,0,24C802.586,311,802.611,287,787.143,287z"/>
			<path style="fill:#894B19;" d="M791.429,323.428c-15.443,0-15.469,24,0,24C806.871,347.428,806.897,323.428,791.429,323.428z"/>
			<path style="fill:#894B19;" d="M799.746,365.259c-4.252-4.895-12.614-4.356-16.971,0c-4.856,4.856-4.263,12.063,0,16.971
				c16.181,18.628,32.361,37.255,48.542,55.883c-15.269-0.664-30.537-1.328-45.806-1.993c-6.481-0.282-12,5.717-12,12
				c0,6.734,5.499,11.717,12,12c24.373,1.06,48.745,2.121,73.118,3.181c11.094,0.483,14.891-13.11,8.485-20.485
				C844.658,416.963,822.202,391.111,799.746,365.259z"/>
			<path style="fill:#894B19;" d="M611.429,85.17c28.305-2.06,58.877-2.984,82.568,14.56c18.878,13.98,29.138,40.942,19.677,62.841
				c-4.221,9.77-13.583,17.522-23.595,20.548c-13.599,4.109-28.594,1.055-41.332-4.558c-11.071-4.879-21.309-12.727-24-25.123
				c-2.574-11.855,5.196-22.151,15.691-26.496c6.588-2.727,14.235-3.772,21.324-3.746c6.05,0.022,11.41,1.383,14.696,5.708
				c3.012,3.964,2.613,8.474,0.617,12c-1.482,2.618-5.054,4.125-7.227,2.374c-5.042-4.063-12.043-4.928-16.971,0
				c-4.205,4.205-5.073,12.883,0,16.971c8.157,6.573,18.408,9.726,28.688,6.202c9.615-3.296,16.292-11.151,19.356-20.682
				c6.393-19.886-6.938-40.215-26.595-45.104c-10.099-2.512-20.929-1.475-31.013,0.555c-9.905,1.994-19.311,6.246-26.985,12.86
				c-16.307,14.055-19.827,36.445-11.176,55.639c8.361,18.551,27.018,29.212,45.681,35.076c19.282,6.059,40.747,5.954,58.699-4.056
				c34.702-19.352,39.61-66.234,19.419-97.96c-11.086-17.42-28.318-29.594-47.661-36.304c-22.35-7.752-46.612-6.995-69.86-5.303
				c-6.465,0.471-12,5.179-12,12C599.429,79.3,604.93,85.643,611.429,85.17z"/>
			<path style="fill:#894B19;" d="M746.726,232.895c5.293-3.725,7.773-10.49,4.305-16.418c-3.062-5.236-11.092-8.054-16.418-4.305
				c-20.324,14.305-45.616,21.291-70.226,17.873c-23.802-3.306-45.35-15.671-61.019-33.712c-4.252-4.895-12.615-4.356-16.971,0
				c-4.856,4.856-4.263,12.063,0,16.971C626.305,259.251,696.907,267.961,746.726,232.895z"/>
			<path style="fill:#894B19;" d="M735.089,314.979c-4.011,1.448-9.46,0.464-13.724-0.18c-6.4-0.966-12.901,1.609-14.761,8.381
				c-1.558,5.669,1.934,13.789,8.381,14.761c12.75,1.923,26.184,3.204,36.944-5.371c9.963-7.94,14.005-22.258,6.382-33.235
				c-3.266-4.703-7.929-7.97-13.112-10.27c-4.736-2.102-8.913-2.87-12.721-5.484c-0.033-0.022-0.094-0.061-0.168-0.108
				c3.286-1.599,8.084-1.477,12.28-1.37c15.45,0.393,15.442-23.607,0-24c-12.559-0.319-25.673,1.69-33.161,12.984
				c-7.631,11.51-2.877,25.032,7.794,32.454c4.287,2.982,9.312,4.564,14.138,6.428c1.518,0.586,2.66,1.223,4.613,2.341
				c-0.568-0.325-0.232-0.085,0.138,0.192c-0.079,0.23-0.119,0.405-0.038,0.326C737.442,313.447,736.613,314.429,735.089,314.979z
				 M731.446,282.881c-0.385-0.296-0.714-0.618-0.655-0.836c-0.012,0.045,0.649,0.615,0.655,0.834
				C731.446,282.879,731.446,282.88,731.446,282.881z M738.4,312.202c0.11,0.016,0.229,0.175,0.048,0.439
				c0.01,0.031,0.016,0.054,0.025,0.083c-0.023-0.032-0.056-0.07-0.074-0.098C738.399,312.484,738.399,312.343,738.4,312.202z
				 M738.398,312.723c0.034,0.027,0.07,0.055,0.098,0.079c0.202,0.669,0.172,0.65-0.098-0.075
				C738.398,312.726,738.398,312.725,738.398,312.723z"/>
			<path style="fill:#894B19;" d="M682.96,276.168c-5.865-1.612-13.541,1.983-14.762,8.381
				c-4.914,25.764-8.431,54.341,10.395,75.645c17.918,20.276,47.127,20.091,71.817,18.158c6.462-0.506,12-5.153,12-12
				c0-6.101-5.503-12.509-12-12c-17.506,1.371-40.239,4.017-53.756-9.952c-13.356-13.802-8.509-36.719-5.314-53.471
				C692.554,284.57,689.562,277.982,682.96,276.168z"/>
			<path style="fill:#894B19;" d="M637.559,269.584c-22.299-1.997-42.929-13.451-57.526-30.412c-4.23-4.915-12.629-4.341-16.971,0
				c-4.873,4.873-4.24,12.043,0,16.97c18.86,21.915,45.873,34.879,74.496,37.442c6.464,0.579,12-5.93,12-12
				C649.559,274.612,644.041,270.165,637.559,269.584z"/>
			<path style="fill:#894B19;" d="M715.021,451.18c1.808,16.467,11.437,30.126,25.949,38.08c15.325,8.399,32.925,9.596,50.053,9.498
				c15.438-0.089,15.472-24.089,0-24c-18.698,0.107-47.483-1.41-51.95-23.871c-1.479-7.436,0.982-16.071,7.354-21.591
				c6.154-5.331,14.7-6.651,22.17-4.515c14.877,4.254,21.228-18.897,6.38-23.143C743.683,392.69,711.414,418.32,715.021,451.18z"/>
			<path style="fill:#894B19;" d="M741.182,516.796c-7.204-10.168-20.935-5.851-22.362,6.057
				c-1.807,15.088-3.614,30.175-5.421,45.263c-28.135-21.225-56.269-42.449-84.404-63.674c-5.178-3.906-13.417-0.826-16.418,4.305
				c-3.596,6.147-0.885,12.503,4.305,16.418c33.275,25.103,66.551,50.206,99.826,75.309c3.314,2.5,8.741,1.973,12.113,0
				c3.984-2.331,5.423-6.014,5.943-10.362c1.478-12.345,2.957-24.691,4.435-37.036c12.602,14.87,26.438,28.646,41.54,41.096
				c7.675,6.327,20.54,2.642,20.485-8.485c-0.107-21.848-0.215-43.696-0.322-65.544c-0.076-15.439-24.076-15.471-24,0
				c0.063,12.852,0.126,25.703,0.19,38.554C763.914,545.829,751.844,531.845,741.182,516.796z"/>
			<path style="fill:#894B19;" d="M612,451.592c-4.336,4.336-4.919,12.708,0,16.971c24.608,21.323,50.746,40.869,78.214,58.355
				c5.468,3.481,13.235,1.137,16.418-4.305c3.385-5.788,1.177-12.928-4.305-16.418c-25.768-16.405-50.27-34.598-73.357-54.603
				C624.075,447.351,616.813,446.78,612,451.592z"/>
			<path style="fill:#894B19;" d="M698.523,387.705c-23.152,24.917-27.862,61.03-12.014,91.11c3.02,5.732,11.001,7.474,16.418,4.305
				c5.806-3.396,7.336-10.664,4.305-16.418c-10.7-20.31-7.349-45.226,8.261-62.027C725.997,393.372,709.064,376.361,698.523,387.705
				z"/>
			<path style="fill:#894B19;" d="M657.329,380.529c-12.898,17.055-19.099,39.212-17.074,60.49c0.614,6.452,5.076,12,12,12
				c6.014,0,12.618-5.51,12-12c-1.683-17.688,3.086-34.212,13.798-48.376c3.912-5.173,0.821-13.42-4.305-16.418
				C667.595,372.625,661.251,375.343,657.329,380.529z"/>
			<path style="fill:#894B19;" d="M730.057,776.646c6.64,1.824,12.585-2.252,14.761-8.381c5.006-14.097,18.747-25.149,32.659-30.744
				c19.991-8.04,42.003-8.209,63.212-8.596c15.521-0.283,15.368-23.18,0-24c-21.497-1.147-42.355-10.648-57.396-26.214
				c-15.46-16.001-23.844-37.834-23.892-59.989c-0.033-15.441-24.033-15.47-24,0c0.061,28.448,11.113,56.459,30.921,76.96
				c5.407,5.596,11.395,10.529,17.818,14.771c-6.329,1.571-12.558,3.602-18.638,6.259c-20.002,8.742-36.458,24.422-43.827,45.174
				C719.507,767.992,724.131,775.018,730.057,776.646z"/>
			<path style="fill:#894B19;" d="M734.316,708.688c8.782-2.628,11.554-13.436,5.295-20.057
				c-15.631-16.536-22.254-40.457-17.664-62.104c1.343-6.334-1.87-12.972-8.381-14.761c-5.969-1.64-13.411,2.012-14.761,8.381
				c-5.332,25.149-0.346,51.264,13.541,72.419c-21.809,13.403-36.072,38.98-33.171,64.946c0.72,6.44,5,12,12,12
				c5.929,0,12.724-5.517,12-12C700.793,736.205,713.689,714.859,734.316,708.688z"/>
			<path style="fill:#894B19;" d="M649.571,751.857c-15.443,0-15.468,24,0,24C665.014,775.857,665.04,751.857,649.571,751.857z"/>
			<path style="fill:#894B19;" d="M613.571,777c15.443,0,15.468-24,0-24C598.129,753,598.103,777,613.571,777z"/>
			<path style="fill:#894B19;" d="M580.429,778.714c15.443,0,15.468-24,0-24C564.986,754.714,564.96,778.714,580.429,778.714z"/>
			<path style="fill:#894B19;" d="M657.571,715.286c-25.714,0-51.429,0-77.143,0c-15.443,0-15.469,24,0,24
				c25.714,0,51.428,0,77.143,0C673.014,739.286,673.04,715.286,657.571,715.286z"/>
			<path style="fill:#894B19;" d="M693.659,688.179c8.254-13.108-12.504-25.165-20.723-12.113c-1.426,2.265-2.771,4.584-4.706,6.422
				c-1.984,1.884-0.805,0.612-1.457,0.1c-2.469-1.936-4.354-5.687-6.179-8.193c-2.712-3.724-5.425-7.448-8.137-11.173
				c-5.336-7.328-15.523-8.071-20.723,0c-2.825,4.385-5.65,8.769-8.475,13.154c-0.864-1.54-1.577-3.176-2.448-4.708
				c-2.376-4.182-5.344-7.895-9.408-10.543c-8.543-5.566-20.022-4.85-26.557,3.391c-2.936,3.703-4.233,8.274-5.722,12.692
				c-1.677,4.974-3.353,9.948-5.03,14.923c-2.07,6.141,2.384,13.113,8.381,14.761c6.558,1.802,12.684-2.218,14.761-8.381
				c1.379-4.091,2.758-8.182,4.137-12.273c0.068,0.129,0.137,0.256,0.206,0.385c2.001,3.774,4.213,7.493,7.463,10.335
				c7.282,6.368,17.495,8.441,25.771,2.729c3.437-2.372,5.711-5.788,7.918-9.243c0.598,0.815,1.189,1.636,1.79,2.448
				c4.174,5.64,8.531,10.998,15.465,13.261C674.929,711.032,686.392,699.719,693.659,688.179z M598.625,681.069
				c-0.073-0.004-0.143-0.007-0.205-0.009C598.419,680.856,598.488,680.863,598.625,681.069z M598.615,681.368
				c0.068,0.017,0.134,0.034,0.211,0.053c0.011,0.022,0.02,0.036,0.032,0.059C598.77,681.46,598.692,681.417,598.615,681.368z
				 M625.235,679.288c-0.054,0.074-0.142,0.028-0.251-0.09C625.182,679.188,625.291,679.209,625.235,679.288z"/>
			<path style="fill:#894B19;" d="M206.976,709.152c-3.339,1.292-7.049,1.245-10.566,1.374c-9.762,0.355-19.528,0.638-29.291,0.956
				c-19.963,0.651-39.926,1.302-59.889,1.953c-15.405,0.502-15.474,24.504,0,24c18.981-0.619,37.962-1.238,56.944-1.857
				c9.818-0.32,19.636-0.638,29.454-0.96c9.004-0.296,18.106-0.737,26.234-5.048c7.938-4.21,13.815-12.437,14.483-21.454
				c0.712-9.604-4.842-17.426-12.298-22.805c-12.913-9.314-31.141-11.196-46.488-12.777c-11.337-1.168-22.75-1.691-33.824-4.123
				c2.998-0.227,5.996-0.454,8.993-0.691c9.598-0.761,19.197-1.521,28.796-2.282c9.34-0.74,18.858-1.068,28.09-2.748
				c17.917-3.261,34.903-20.685,26.212-39.686c-9.427-20.611-37.883-16.665-56.339-16.995c-21.684-0.387-43.368-0.775-65.052-1.162
				c-15.45-0.276-15.451,23.724,0,24c17.741,0.317,35.483,0.634,53.224,0.951c8.542,0.153,17.084,0.305,25.626,0.458
				c6.109,0.109,15.775-1.131,20.322,2.307c0.279,0.211,0.47,0.357,0.608,0.464c-0.002,0.013-0.005,0.026-0.008,0.039
				c-0.135-0.093-0.268-0.186-0.26-0.178c-0.358-0.371-0.068-0.006,0.22,0.376c-0.369,1.605-1.375,2.68-2.904,3.688
				c-5.408,3.565-13.633,3.211-19.81,3.7c-17.542,1.39-35.084,2.78-52.626,4.17c-7.97,0.632-17.157,0.155-24.738,2.868
				c-9.172,3.282-15.302,12.03-12.294,21.93c2.524,8.308,10.922,12.998,18.359,16.222c6.982,3.027,14.102,5.224,21.591,6.584
				c13.956,2.534,28.209,2.909,42.192,4.842c7.042,0.973,14.152,2.456,20.829,4.933c2.15,0.798,4.783,1.963,6.509,3.365
				c0.246,0.2,0.665,0.798,0.949,1.117c-0.219,0.377-0.507,0.848-0.915,1.205C209.414,707.792,207.645,708.893,206.976,709.152z
				 M212.262,633.104c-0.002-0.011,0.001-0.029,0-0.04C212.631,633.351,212.468,633.245,212.262,633.104z M119.056,670.601
				c0.206-0.059,0.411-0.119,0.617-0.178c0,0,0,0.001,0,0.001C119.467,670.483,119.262,670.542,119.056,670.601z M121.379,660.362
				c0.024-0.002,0.037,0.038,0.04,0.113C121.352,660.413,121.321,660.367,121.379,660.362z M210.488,706.896
				C211.392,707.204,210.844,707.155,210.488,706.896L210.488,706.896z M210.635,706.076c-0.098,0.061-0.216,0.266-0.367,0.526
				C210.237,706.45,210.319,706.272,210.635,706.076z"/>
			<path style="fill:#894B19;" d="M56.2,833.722c5.861,3.428,12.84,1.12,16.418-4.305c12.799-19.404,25.598-38.808,38.398-58.212
				c3.57-5.412,1.073-13.272-4.305-16.418c-5.861-3.428-12.84-1.12-16.418,4.305c-12.799,19.404-25.598,38.808-38.398,58.212
				C48.325,822.716,50.821,830.576,56.2,833.722z"/>
			<path style="fill:#894B19;" d="M608,566c15.443,0,15.468-24,0-24C592.557,542,592.532,566,608,566z"/>
			<path style="fill:#894B19;" d="M640.571,587.429c15.443,0,15.468-24,0-24C625.129,563.429,625.103,587.429,640.571,587.429z"/>
			<path style="fill:#894B19;" d="M675.714,612.286c15.443,0,15.468-24,0-24C660.271,588.286,660.246,612.286,675.714,612.286z"/>
			<path style="fill:#894B19;" d="M576.518,577.942c-3.531,6.036-0.979,12.633,4.305,16.418
				c28.119,20.146,56.239,40.292,84.358,60.438c5.271,3.777,13.361,0.922,16.418-4.305c3.53-6.036,0.979-12.633-4.305-16.418
				c-28.119-20.146-56.239-40.292-84.358-60.438C587.665,569.86,579.576,572.714,576.518,577.942z"/>
			<path style="fill:#894B19;" d="M599.929,649.044c6.386,1.06,12.918-1.674,14.761-8.381c1.578-5.744-1.952-13.694-8.381-14.762
				c-25.716-4.27-43.968-26.397-44.966-52.854c-1.023-27.124,13.96-52.141,37.312-65.557c13.389-7.692,1.315-28.438-12.113-20.723
				c-30.758,17.671-51.245,52.123-49.117,87.965C539.514,609.922,563.913,643.064,599.929,649.044z"/>
			<path style="fill:#894B19;" d="M608,409.944c-15.443,0-15.468,24,0,24C623.443,433.944,623.468,409.944,608,409.944z"/>
			<path style="fill:#894B19;" d="M529,673.093c0.229,54.221,0.457,108.441,0.686,162.662c0.065,15.44,24.065,15.471,24,0
				c-0.228-54.221-0.457-108.441-0.686-162.662C552.935,657.653,528.935,657.622,529,673.093z"/>
			<path style="fill:#894B19;" d="M431.122,862.371c0.188-0.394,0.953-2.059,1.176-2.525c1.326-2.77,2.783-5.478,4.369-8.108
				c3.595-5.958,7.9-11.262,12.939-16.065c8.887-8.471,19.854-14.485,30.535-17.959c5.141-1.672,10.41-2.949,15.742-3.836
				c0.307-0.051,1.453-0.217,2.088-0.313c0.552-0.063,1.28-0.148,1.512-0.172c1.645-0.169,3.294-0.296,4.945-0.393
				c5.309-0.312,10.115-3.511,11.571-8.81c1.299-4.727-0.737-11.418-5.515-13.552c-17.628-7.875-36.014-12.997-54.757-15.328
				c15.025-7.615,30.05-15.23,45.074-22.844c4.692-2.378,6.859-8.66,5.515-13.552c-1.486-5.409-6.26-8.311-11.571-8.81
				c-18.702-1.759-37.404-3.517-56.105-5.276c19.396-12.944,38.791-25.887,58.187-38.831c9.757-6.511,6.242-22.104-6.057-22.362
				c-31.067-0.65-62.134-1.3-93.201-1.949c-15.45-0.323-15.448,23.677,0,24c18.279,0.382,36.559,0.765,54.839,1.147
				c-18.168,12.124-36.335,24.248-54.503,36.372c-10.298,6.872-5.776,21.249,6.057,22.362c16.153,1.519,32.306,3.038,48.458,4.557
				c-18.062,9.154-36.125,18.309-54.187,27.463c-5.27,2.671-7.173,9.836-4.91,14.985c2.568,5.842,8.073,7.935,14.157,6.948
				c5.499-0.892,13.265-1.656,20.603-1.856c8.573-0.233,17.217,0.106,25.727,1.192c2.263,0.289,4.523,0.641,6.776,1.044
				c-7.922,3.706-15.439,8.339-22.392,13.936c-24.321,19.577-37.161,51.031-39.359,81.611c-1.036,14.41,0.629,29.151,4.32,43.105
				c3.946,14.918,27.102,8.591,23.143-6.38c-2.806-10.607-3.79-17.582-3.76-28.694c0.036-13.271,2.78-26.027,7.507-38.408
				C430.234,864.57,430.976,862.747,431.122,862.371z"/>
			<path style="fill:#894B19;" d="M446.143,928.429c15.443,0,15.468-24,0-24C430.7,904.429,430.674,928.429,446.143,928.429z"/>
			<path style="fill:#894B19;" d="M450.714,867.857c-15.443,0-15.469,24,0,24C466.157,891.857,466.183,867.857,450.714,867.857z"/>
			<path style="fill:#894B19;" d="M469.489,835.427c-15.443,0-15.468,24,0,24C484.932,859.427,484.958,835.427,469.489,835.427z"/>
			<path style="fill:#894B19;" d="M504.429,822.239c-15.443,0-15.469,24,0,24C519.871,846.239,519.897,822.239,504.429,822.239z"/>
			<path style="fill:#894B19;" d="M264.142,675.606c14.846,10.62,36.221,6.579,45.969-8.82c10.008-15.812,3.023-37.38-14.422-44.104
				c-8.502-3.277-18.273-1.871-25.56,2.761c-3.404-0.254-6.909,1.028-9.792,3.373C244.959,641.329,249.171,664.897,264.142,675.606z
				 M283.136,645.037c-0.024,0.063-0.04,0.108-0.036,0.112C283.88,645.88,280.904,644.208,283.136,645.037z"/>
			<path style="fill:#894B19;" d="M391.652,135.354c14.846,10.62,36.221,6.579,45.968-8.82c10.009-15.812,3.023-37.38-14.422-44.104
				c-8.502-3.277-18.273-1.871-25.56,2.761c-3.404-0.254-6.909,1.028-9.792,3.373C372.468,101.076,376.68,124.644,391.652,135.354z
				 M410.645,104.785c-0.024,0.063-0.04,0.108-0.036,0.112C411.39,105.628,408.414,103.955,410.645,104.785z"/>
			<path style="fill:#894B19;" d="M554.429,185c-15.443,0-15.469,24,0,24C569.871,209,569.897,185,554.429,185z"/>
			<path style="fill:#894B19;" d="M515.857,187.571c-15.443,0-15.468,24,0,24C531.3,211.571,531.326,187.571,515.857,187.571z"/>
			<path style="fill:#894B19;" d="M478.143,191.857c-15.443,0-15.469,24,0,24C493.586,215.857,493.611,191.857,478.143,191.857z"/>
			<path style="fill:#894B19;" d="M392.43,175.44c7.769,0.082,15.539,0.164,23.308,0.246c-7.73,8.565-15.461,17.129-23.191,25.694
				c-6.527,7.231-2.481,21.082,8.485,20.485c14.279-0.777,28.559-1.554,42.838-2.331c6.473-0.352,12-5.263,12-12
				c0-6.225-5.496-12.354-12-12c-4.823,0.263-9.647,0.525-14.47,0.787c7.181-7.956,14.363-15.913,21.544-23.869
				c6.879-7.622,2.25-20.372-8.485-20.485c-16.676-0.176-33.352-0.352-50.029-0.527C376.982,151.277,376.97,175.277,392.43,175.44z"
				/>
			<path style="fill:#894B19;" d="M384.7,249.06c0,6.154,5.5,12.443,12,12c37.565-2.559,75.13-5.118,112.694-7.677
				c-21.979,30.031-30.904,69.023-24.129,105.913c1.172,6.378,8.904,9.991,14.762,8.381c6.703-1.842,9.556-8.365,8.381-14.761
				c-7.05-38.387,8.572-79.58,38.966-105.057c7.838-6.57,1.57-21.17-8.485-20.485c-47.396,3.229-94.793,6.457-142.189,9.686
				C390.233,237.501,384.7,242.26,384.7,249.06z"/>
			<path style="fill:#894B19;" d="M468.897,265.251c-6.837-1.878-12.347,2.339-14.761,8.381
				c-12.038,30.124-13.109,64.343-3.455,95.277c4.586,14.695,27.762,8.423,23.143-6.38c-8.518-27.294-7.143-55.997,3.455-82.517
				C479.684,273.992,474.65,266.832,468.897,265.251z"/>
			<path style="fill:#894B19;" d="M384.522,295.363c4.964,4.964,11.938,4.117,16.971,0c1.738-1.422,5.624-0.091,6.134,2.735
				c0.383,2.128-0.127,3.217-1.367,4.309c-0.464,0.408-0.897,0.668-1.393,0.873c-2.608-0.101-5.25,0.124-7.863,0.705
				c-5.763,1.282-9.437,7.575-8.596,13.166c0.954,6.342,5.675,9.68,11.786,10.405c2.179,0.259,4.309,0.233,6.376-0.017
				c0.029,0.01,0.056,0.022,0.085,0.032c-0.029,0.034,0.829,0.511,1.027,0.649c1.33,0.927,2.538,2.495,2.801,3.496
				c0.04,0.151,0.113,1.333-0.081,1.888c-0.241,0.688-1.188,2.108-1.636,2.592c-1.88,2.03-3.056,2.307-6.036,2.1
				c-6.473-0.449-12,5.837-12,12c0,6.868,5.508,11.549,12,12c18.114,1.257,33.982-15.899,31.378-33.784
				c-0.826-5.67-3.286-10.637-6.795-14.637c4.023-6.548,5.563-14.648,3.251-22.583c-2.647-9.082-9.676-16.669-18.899-19.239
				c-9.89-2.756-19.382-0.012-27.142,6.337C379.503,282.499,380.261,291.102,384.522,295.363z"/>
			<path style="fill:#894B19;" d="M438.94,377.951c-6.839-6.082-15.701-5.651-22.649-1.465c-2.132,0.507-4.188,1.554-5.96,3.068
				c-9.369,8.005-10.269,23.085-1.516,31.888c8.687,8.736,23.692,7.926,31.484-1.602
				C447.801,400.665,448.191,386.179,438.94,377.951z M426.566,396.071C426.575,397.095,426.378,396.85,426.566,396.071
				L426.566,396.071z M428.845,396.734c0.046-0.072,0.089-0.141,0.125-0.198c0.034-0.036,0.054-0.055,0.094-0.097
				C429.97,396.227,429.312,396.553,428.845,396.734z"/>
			<path style="fill:#894B19;" d="M380.777,489.071c-8.035,4.888-10.357,13.661-10.947,22.433
				c-0.594,8.816-0.97,17.652-1.453,26.475c-1.011,18.483-2.023,36.966-3.034,55.449c-0.354,6.478,5.769,12,12,12
				c6.793,0,11.645-5.503,12-12c1.011-18.483,2.023-36.966,3.034-55.449c0.469-8.58,0.855-17.169,1.409-25.744
				c0.027-0.411,0.034-1.883,0.179-2.934c1.623-0.071,4.003,0.322,4.696,0.43c8.501,1.324,16.897,2.979,24.912-1.356
				c7.094-3.837,11.143-10.892,12.318-18.695c1.282-8.52,0.573-17.262,0.443-25.845c-0.139-9.228-0.279-18.457-0.419-27.685
				c-0.233-15.429-24.234-15.475-24,0c0.14,9.228,0.279,18.456,0.419,27.685c0.07,4.614,0.144,9.228,0.209,13.842
				c0.043,3.017,0.128,6.622-0.243,8.296c-0.207,0.934,0.026,1.064-0.103,1.332c-1.941,0.499-4.954-0.335-7.156-0.717
				C396.803,485.156,388.245,484.527,380.777,489.071z M392.408,509.83c0.062-0.154,0.224-0.265,0.444-0.348
				C392.598,509.682,392.408,509.83,392.408,509.83z M412.15,487.388c-0.085,0.124-0.24,0.284-0.53,0.549
				C411.914,487.669,411.968,487.513,412.15,487.388z M394.388,508.186c0.038-0.005-0.055,0.085-0.207,0.219
				C394.24,508.279,394.308,508.197,394.388,508.186z"/>
			<path style="fill:#894B19;" d="M310.066,584.441c-5.41-0.021-10.821-0.132-16.23-0.2c-11.289-0.141-22.577-0.281-33.866-0.422
				c-15.449-0.193-15.458,23.807,0,24c9.676,0.121,19.352,0.241,29.028,0.362c9.233,0.115,18.725,0.875,27.931,0.044
				c10.105-0.912,20.423-4.765,25.867-13.91c4.978-8.363,4.315-18.534-0.184-26.931c-9.594-17.909-31.061-17.916-48.625-18.307
				c-5.654-0.126-13.859-0.489-17.377-5.09c-0.791-1.035-1.471-2.511-1.091-3.705c0.079-0.03,0.214-0.106,0.441-0.252
				c0.82-0.529,2.887-1.077,4.602-1.353c8.344-1.343,19.682-0.715,28.901-0.535c11.534,0.225,23.045,0.965,34.521,2.139
				c6.457,0.66,12-5.988,12-12c0-7.038-5.525-11.338-12-12c-19.65-2.009-39.487-2.79-59.228-1.874
				c-9.115,0.423-18.708,1.876-25.596,8.433c-6.932,6.599-9.151,16.816-6.483,25.903c5.852,19.935,27.089,24.289,45.193,24.374
				c7.096,0.034,15.443-0.705,21.33,3.371c1.863,1.29,2.879,2.773,3.229,4.818c-0.115-0.674-0.419,0.504-0.338,0.726
				c-0.422,0.399-1.202,1.01-1.877,1.331C317.315,584.747,313.291,584.454,310.066,584.441z"/>
			<path style="fill:#894B19;" d="M238.837,497.324c29.445,1.036,58.89,2.239,88.341,3.107c7.759,0.229,15.048-2.024,18.982-9.226
				c1.508-2.761,1.967-5.393,2.525-8.389c0.232-1.248,0.439-2.518,0.908-3.707c-0.1,0.405,0.895-1.134,0.765-1.039
				c2.221-2.721,5.807-4.518,10.024-5.192c6.367-1.018,13.04,0.212,19.327,1.283c7.744,1.32,14.96-3.185,15.19-11.571
				c0.262-9.533,0.524-19.066,0.786-28.6c0.425-15.449-23.576-15.438-24,0c-0.138,5.012-0.276,10.025-0.413,15.037
				c-9.991-0.783-19.921,0.012-29.06,5.142c-5.354,3.005-10.282,7.587-13.302,12.969c-1.543,2.75-2.646,5.783-3.268,8.869
				c-2.495-0.096-5.265,0.186-7.395,0.111c-3.639-0.128-7.279-0.256-10.918-0.384c-7.61-0.268-15.22-0.535-22.83-0.803
				c-15.22-0.535-30.439-1.071-45.659-1.606C223.39,472.78,223.411,496.781,238.837,497.324z"/>
			<path style="fill:#894B19;" d="M89.943,412.174c4.772-5.902,5.164-15.593,6.7-22.791c1.801-8.444,3.602-16.889,5.404-25.333
				c2.518-11.803-11.001-19.875-20.057-11.675c-11.187,10.13-22.374,20.26-33.562,30.39c-2.334,2.114-3.435,5.135-3.452,8.19
				c-0.198,3.32,0.824,6.667,3.452,8.781c0.685,0.685,1.427,1.251,2.203,1.726c4.975,3.808,10.2,7.25,15.195,11.036
				c2.244,1.701,5.652,4.185,9.26,5.012C80.737,418.803,86.359,416.607,89.943,412.174z"/>
			<path style="fill:#894B19;" d="M108.286,317c-15.443,0-15.468,24,0,24C123.729,341,123.754,317,108.286,317z"/>
			<path style="fill:#894B19;" d="M131.857,287.857c-15.443,0-15.468,24,0,24C147.3,311.857,147.326,287.857,131.857,287.857z"/>
			<path style="fill:#894B19;" d="M155,284.428c15.443,0,15.468-24,0-24C139.557,260.428,139.532,284.428,155,284.428z"/>
			<path style="fill:#894B19;" d="M233.054,374.311c0.356,0.041,3.392,0.483,3.747,0.502c0.499,0.119,1.014,0.278,1.529,0.427
				c-0.005,0.406,0.006,0.813-0.014,1.219c-0.041,1.602-0.136,3.203-0.208,4.804c-0.178,3.993-0.357,7.987-0.535,11.98
				c-0.713,15.973-1.427,31.946-2.14,47.919c-0.289,6.481,5.723,12,12,12c6.74,0,11.71-5.5,12-12
				c0.803-17.97,1.605-35.939,2.408-53.909c0.371-8.307,1.963-17.942-2.732-25.395c-4.676-7.423-12.593-9.847-20.788-10.907
				c-34.49-4.459-69.43-5.918-104.182-5.083c-15.418,0.37-15.476,24.371,0,24c31.049-0.745,62.122,0.48,93.005,3.785
				C229.115,373.864,231.085,374.084,233.054,374.311z"/>
			<path style="fill:#894B19;" d="M325.724,329.657c-19.529,4.581-35.142,20.146-42.973,38.15
				c-10.141,23.316-9.051,48.567-5.757,73.242c0.857,6.422,4.901,12,12,12c5.817,0,12.864-5.53,12-12
				c-2.403-18.002-4.45-36.817,0.445-54.581c3.802-13.797,12.497-27.253,26.272-32.376c11.941-4.442,25.925-1.026,31.642,10.303
				c0.772,1.53,1.349,3.91,1.408,5.784c0.126,4.014,0.082,4.598-1.292,8.279c-0.484,1.299-1.625,3.25-3.308,4.895
				c-1.353,1.322-4.423,2.856-7.446,3.967c-9.942,3.655-18.382,7.766-24.629,16.67c-6.101,8.696-7.546,19.243-5.766,29.503
				c1.109,6.39,8.948,9.979,14.761,8.381c6.752-1.856,9.493-8.353,8.381-14.761c-0.861-4.96,2.209-11.359,7.649-14.24
				c8.418-4.457,17.522-5.849,24.463-13.007c12.749-13.147,15.023-35.382,4.675-50.64
				C366.726,332.232,345.472,325.025,325.724,329.657z"/>
			<path style="fill:#894B19;" d="M350.961,181.594c-15.159-11.881-34.22-17.189-53.313-17.612
				c-18.026-0.4-36.702,3.69-51.01,15.105c-15.737,12.554-20.519,33.085-19.503,52.395c0.982,18.662,7.032,37.953,22.523,49.555
				c16.325,12.227,39.672,11.259,56.962,1.548c18.842-10.583,29.854-33.59,21.478-54.425c-8.932-22.219-36.13-29.324-54.8-14.622
				c-5.096,4.013-4.201,12.769,0,16.971c5.032,5.032,11.862,4.023,16.971,0c-0.471,0.371,0.971-0.39,0.941-0.379
				c0.603-0.223,1.245-0.396,1.873-0.535c-0.009,0.002,0.577-0.075,0.959-0.132c0.495,0.057,2.614,0.099,2.132-0.012
				c1.139,0.197,3.081,0.744,3.324,0.84c3.807,1.509,6.201,4.658,7.218,9.651c0.866,4.253-0.155,9.228-2.955,13.645
				c-2.671,4.213-7.351,7.674-11.829,9.661c-11.375,5.047-25.166,3.481-32.719-5.946c-6.703-8.367-8.454-21.498-8.179-32.853
				c0.308-12.736,4.549-23.612,14.801-29.649c10.355-6.098,22.578-7.367,34.914-6.697c11.906,0.646,24.664,4.082,34.447,11.4
				c10.202,7.632,15.934,19.249,17.673,31.683c4.01,28.675-16.095,54.618-41.349,68.125c-13.625,7.287-1.516,28.013,12.113,20.723
				c32.426-17.342,57.591-51.678,53.118-89.805C374.529,211.303,366.162,193.508,350.961,181.594z"/>
			<path style="fill:#894B19;" d="M147.315,318.926c-10.982,10.892,5.987,27.863,16.971,16.971
				c12.102-12.002,22.214-25.939,33.897-38.342c0.223-0.236,1.139-1.117,1.877-1.863c0.992,0.767,2.58,2.004,2.398,1.851
				c6.337,5.359,12.72,10.665,19.079,15.997c12.974,10.878,25.948,21.757,38.922,32.635c4.963,4.161,12.105,4.865,16.971,0
				c4.276-4.276,4.989-12.787,0-16.971c-14.246-11.945-28.492-23.889-42.738-35.834c-7.151-5.996-14.134-12.809-21.87-18.039
				c-9.326-6.304-19.658-5.627-28.09,1.787C170.738,289.423,160.538,305.812,147.315,318.926z"/>
			<path style="fill:#894B19;" d="M203.857,339.286c15.443,0,15.468-24,0-24C188.414,315.286,188.389,339.286,203.857,339.286z"/>
			<path style="fill:#894B19;" d="M142.599,170.713c-6.461,0.51-12,5.15-12,12c0,6.098,5.503,12.513,12,12
				c10.447-0.825,20.538,3.757,25.245,13.803c3.884,8.291,1.781,19.632-5.161,26.736c-10.802,11.055,6.153,28.041,16.971,16.971
				c14.069-14.398,17.909-36.243,9.515-54.535C181.226,180.38,161.472,169.223,142.599,170.713z"/>
			<path style="fill:#894B19;" d="M207.857,257.571c15.443,0,15.468-24,0-24C192.414,233.571,192.389,257.571,207.857,257.571z"/>
			<path style="fill:#894B19;" d="M210.714,220.428c15.443,0,15.468-24,0-24C195.271,196.428,195.246,220.428,210.714,220.428z"/>
			<path style="fill:#894B19;" d="M223.404,177.091c34.579-33.08,87.384-37.027,127.063-10.717
				c5.403,3.583,13.278,1.064,16.418-4.305c3.435-5.872,1.111-12.827-4.305-16.418c-48.668-32.271-114.149-25.708-156.147,14.47
				C195.251,170.818,212.238,187.773,223.404,177.091z"/>
			<path style="fill:#894B19;" d="M289.567,116.39c5.81,1.596,13.61-1.969,14.762-8.381c0.591-3.292,1.168-7.571,2.513-10.248
				c-0.066,0.131,0.556-1.083,0.96-1.809c1.343,2.212,2.571,4.506,3.854,6.753c2.322,4.067,4.43,8.346,7.291,12.066
				c3.295,4.285,7.939,7.285,13.506,7.398c6.342,0.128,11.004-3.654,15.377-7.691c7.563-6.981,15.042-14.055,22.562-21.082
				c11.309-10.568-5.689-27.512-16.971-16.971c-4.465,4.173-8.931,8.345-13.396,12.518c-1.704,1.593-3.491,3.598-5.373,5.49
				c-0.295-0.439-0.573-0.861-0.795-1.251c-1.947-3.41-3.807-6.897-5.861-10.244c-4.395-7.161-11.213-11.982-19.888-11.616
				c-16.755,0.707-24.313,15.771-26.923,30.307C280.042,108.001,282.918,114.563,289.567,116.39z M337.308,99.224
				c-0.054-0.245-0.135-0.496-0.234-0.752C338.562,99.465,337.766,101.289,337.308,99.224z M309.067,95.182
				c-0.001,0-0.002,0-0.002-0.001C309.248,95.078,309.247,95.079,309.067,95.182z M308.865,95.295c0.002,0,0.004,0,0.006,0
				c-0.039,0.022-0.07,0.04-0.116,0.066c-0.003,0-0.004,0-0.006,0C308.793,95.336,308.827,95.316,308.865,95.295z"/>
			<path style="fill:#894B19;" d="M191.567,156.471c12.573-5.925,21.807-16.991,32.499-25.552c0.215-0.17,0.33-0.262,0.397-0.317
				c0.638-0.481,1.278-0.959,1.924-1.428c0.951-0.692,1.909-1.376,2.884-2.034c2.235-1.508,4.545-2.902,6.921-4.177
				c6.027-3.235,12.033-5.246,18.855-6.963c14.969-3.766,8.627-26.918-6.38-23.143c-11.075,2.786-22.012,7.143-31.508,13.559
				c-8.939,6.04-16.689,13.402-24.79,20.466c-7.464,6.509-17.295,13.466-26.646,8.969c-9.049-4.353-12.752-15.242-11.227-24.841
				c1.016-6.393-1.644-12.91-8.381-14.761c-5.709-1.569-13.738,1.943-14.761,8.381c-2.577,16.216,0.498,33.609,13.006,45.256
				C157.661,162.271,175.395,164.092,191.567,156.471z"/>
			<path style="fill:#894B19;" d="M182.143,111.857c15.443,0,15.468-24,0-24C166.7,87.857,166.674,111.857,182.143,111.857z"/>
			<path style="fill:#894B19;" d="M260.43,726.604c35.237,0.457,70.474,0.914,105.711,1.372c15.449,0.2,15.457-23.799,0-24
				c-35.237-0.457-70.474-0.914-105.711-1.372C244.981,702.403,244.973,726.403,260.43,726.604z"/>
			<path style="fill:#894B19;" d="M206.218,751.972c-12.611,21.385-0.646,50.651,24.468,54.822
				c11.139,1.85,21.306-1.252,28.939-7.388c7.787,9.081,19.293,14.798,32.79,13.945c12.448-0.787,23.213-6.825,30.43-15.667
				c6.922,7.295,17.264,12.389,27.36,11.639c11.329-0.842,21.183-7.784,26.273-17.929c5.611-11.183,5.431-23.295,4.28-35.448
				c-0.611-6.452-5.078-12-12-12c-6.017,0-12.614,5.509-12,12c0.699,7.391,2.034,15.862-0.826,22.973
				c-0.58,1.442-1.951,3.751-3.66,5.165c-0.825,0.683-2.556,1.268-3.48,1.304c-3.408,0.133-7.944-2.819-10.749-6.857
				c-3.484-5.017-5.208-11.05-6.796-16.929c-0.222-0.932-0.468-1.865-0.758-2.797c-4.562-14.694-27.24-8.6-23.143,6.38
				c0.1,0.368,0.203,0.735,0.305,1.102c2.594,10.439-3.468,22.105-15.237,23.064c-6.236,0.508-11.406-1.275-15.447-6.044
				c-1.788-2.11-3.13-5.033-3.839-7.949c0.564-4.139,0.479-8.478-0.392-12.901c-2.23-11.329-21.099-11.577-23.143,0
				c-0.716,4.057-0.853,8.118-0.475,12.079c-0.637,2.053-1.749,4.087-3.318,5.652c-1.324,1.321-2.399,2.057-4.11,2.641
				c-2.063,0.704-4.734,0.806-6.001,0.588c-9.893-1.703-13.235-11.728-8.751-19.331
				C234.804,750.752,214.067,738.663,206.218,751.972z"/>
			<path style="fill:#894B19;" d="M164.264,845.784c-9.666-9.608-23.89-10.781-35.741-4.652
				c-11.57,5.984-17.947,17.51-23.139,28.901c-2.686,5.893-1.684,12.915,4.305,16.418c5.156,3.016,13.718,1.62,16.418-4.305
				c2.797-6.136,5.542-13.306,10.746-17.839c1.874-1.633,4.016-2.91,6.557-3.207c1.145-0.134,2.552,0.479,3.38,1.187
				c1.848,1.58,2.563,3.108,3.143,5.381c0.351,1.378,0.257,5.004-0.514,7.677c-1.894,6.566-6.391,12.063-11.401,16.549
				c-9.223,8.258-22.225,12.539-34.232,11.154c-11.48-1.324-23.867-10.084-22.034-21.902c1.253-8.08,7.9-15.512,12.968-21.566
				c6.542-7.814,13.676-15.103,20.799-22.383c10.81-11.048-6.146-28.034-16.97-16.971c-8.2,8.381-16.407,16.786-23.726,25.963
				c-7.751,9.719-15.274,19.997-16.847,32.674c-2.913,23.471,16.462,43.376,38.643,47.192c21.987,3.782,44.797-3.494,60.605-19.307
				C172.931,891.038,182.208,863.62,164.264,845.784z"/>
			<path style="fill:#894B19;" d="M209.23,933.725c-1.373-4.637-3.275-9.164-5.422-13.492c-1.778-3.584-4.28-7.141-5.144-11.1
				c-1.45-6.646,3.937-13.358,6.734-19.213c9.337-19.546,9.053-41.464-0.627-60.826c-2.898-5.795-11.086-7.424-16.418-4.305
				c-5.901,3.451-7.213,10.601-4.305,16.418c6.7,13.401,5.123,28.081-1.634,41.037c-4.32,8.284-8.788,17.14-7.941,26.774
				c0.856,9.739,6.132,17.151,9.823,25.884c1.505,3.562,2.519,7.414,3.264,11.2c0.308,1.566,0.526,3.088,0.631,4.676
				c0.004,0.064,0.006,0.137,0.007,0.212c-1.381-1.708-2.791-3.402-4.097-5.124c-5.55-7.321-10.636-15.726-18.069-21.281
				c-8.369-6.254-20.889-7.382-28.979,0.104c-7.639,7.068-7.705,17.083-6.582,26.647c1.357,11.568,2.715,23.136,4.072,34.704
				c0.755,6.436,4.975,12,12,12c5.9,0,12.76-5.52,12-12c-1.202-10.246-2.404-20.492-3.607-30.738
				c-0.37-3.156-0.952-6.416-1.128-9.64c0.958,1.022,1.818,2.122,2.677,3.225c3.115,3.999,6.128,8.083,9.19,12.123
				c5.822,7.679,11.392,16.52,21.53,18.588c11.223,2.289,21.472-5.927,24.135-16.593
				C213.673,953.651,211.923,942.823,209.23,933.725z M151.389,943.289C149.876,944.156,150.582,942.648,151.389,943.289
				L151.389,943.289z M153.712,941.937c-0.037-0.475-0.053-0.834,0.092-0.093C153.774,941.875,153.744,941.906,153.712,941.937z
				 M153.806,941.843C153.555,940.453,155.695,939.923,153.806,941.843L153.806,941.843z M192.232,956.174
				C192.487,956.288,192.469,956.376,192.232,956.174L192.232,956.174z"/>
			<path style="fill:#894B19;" d="M225.725,832.148c0.161,12.857,0.322,25.714,0.483,38.571c0.193,15.432,24.194,15.474,24,0
				c-0.161-12.857-0.322-25.714-0.483-38.571C249.532,816.716,225.531,816.673,225.725,832.148z"/>
			<path style="fill:#894B19;" d="M275.51,819.201c-6.225,0-12.354,5.496-12,12c0.692,12.716,1.384,25.431,2.076,38.146
				c0.352,6.473,5.263,12,12,12c6.225,0,12.354-5.496,12-12c-0.692-12.716-1.384-25.431-2.076-38.146
				C287.158,824.728,282.247,819.201,275.51,819.201z"/>
			<path style="fill:#894B19;" d="M417.172,820.306c-1.573-5.724-8.705-10.79-14.762-8.381
				c-30.653,12.193-63.17,16.985-96.032,14.079c-6.464-0.572-12,5.925-12,12c0,6.967,5.517,11.427,12,12
				c34.669,3.066,70.071-2.072,102.413-14.936C414.809,832.674,419.024,827.046,417.172,820.306z"/>
			<path style="fill:#894B19;" d="M312.286,860.429c-15.443,0-15.468,24,0,24C327.729,884.429,327.754,860.429,312.286,860.429z"/>
			<path style="fill:#894B19;" d="M347.857,859.571c-15.443,0-15.468,24,0,24C363.3,883.571,363.326,859.571,347.857,859.571z"/>
			<path style="fill:#894B19;" d="M378.714,854c-15.443,0-15.469,24,0,24C394.157,878,394.183,854,378.714,854z"/>
			<path style="fill:#894B19;" d="M372.713,889.357c-47.428,0.353-94.856,0.706-142.284,1.059c-15.437,0.115-15.473,24.115,0,24
				c47.428-0.353,94.856-0.706,142.284-1.059C388.15,913.242,388.185,889.242,372.713,889.357z"/>
			<path style="fill:#894B19;" d="M327.543,925.671c-7.696,1.52-14.715,4.46-21.22,8.457
				c-22.719-13.858-50.748-17.852-76.618-11.562c-15.001,3.647-8.648,26.797,6.38,23.143c22.432-5.454,45.657-0.237,64.258,13.21
				c4.627,3.345,10.632,1.256,14.542-1.876c5.533-4.433,12.163-6.871,19.038-8.229c6.361-1.257,10.008-8.843,8.381-14.761
				C340.481,927.416,333.923,924.411,327.543,925.671z"/>
			<path style="fill:#894B19;" d="M373.143,945.286c15.443,0,15.468-24,0-24C357.7,921.286,357.674,945.286,373.143,945.286z"/>
		</g>
	</g>
</g>
</svg>
